{"accessors" : [{"bufferView" : 0, "byteOffset" : 0, "componentType" : 5123, "count" : 105, "type" : "SCALAR", "max" : [95], "min" : [0]}, {"bufferView" : 1, "byteOffset" : 0, "componentType" : 5126, "count" : 96, "type" : "VEC3", "max" : [0, 0.2199999839067459, 3.609557054039112E-16], "min" : [-0.3400000035762787, 0, -0.17000000178813934], "name" : "POSITION"}, {"bufferView" : 1, "byteOffset" : 12, "componentType" : 5126, "count" : 96, "type" : "VEC3", "max" : [0.5000022053718567, 1.0000044107437134, 1.0000044107437134], "min" : [-0.9659300446510315, -1.0000044107437134, -0.8660292625427246], "name" : "NORMAL"}, {"bufferView" : 1, "byteOffset" : 24, "componentType" : 5126, "count" : 96, "type" : "VEC2", "max" : [13.38582706451416, 1], "min" : [-13.38582706451416, -7.661417007446289], "name" : "TEXCOORD_0"}, {"bufferView" : 0, "byteOffset" : 212, "componentType" : 5123, "count" : 30, "type" : "SCALAR", "max" : [28], "min" : [0]}, {"bufferView" : 2, "byteOffset" : 0, "componentType" : 5126, "count" : 29, "type" : "VEC3", "max" : [-0.017452171072363853, 0.19055673480033875, 3.609557054039112E-16], "min" : [-0.31055670976638794, 0.029443269595503807, -0.15527835488319397], "name" : "POSITION"}, {"bufferView" : 2, "byteOffset" : 12, "componentType" : 5126, "count" : 29, "type" : "VEC3", "max" : [1.0000044107437134, 0, 1.0000044107437134], "min" : [0, 0, -0.8660292625427246], "name" : "NORMAL"}, {"bufferView" : 2, "byteOffset" : 24, "componentType" : 5126, "count" : 29, "type" : "VEC2", "max" : [12.226642608642578, -0.15918385982513428], "min" : [-12.226642608642578, -6.502233505249023], "name" : "TEXCOORD_0"}, {"bufferView" : 0, "byteOffset" : 272, "componentType" : 5123, "count" : 9, "type" : "SCALAR", "max" : [8], "min" : [0]}, {"bufferView" : 3, "byteOffset" : 0, "componentType" : 5126, "count" : 9, "type" : "VEC3", "max" : [0, 0.19055673480033875, 3.609557054039112E-16], "min" : [-0.017452171072363853, 0.029443269595503807, -0.010076015256345272], "name" : "POSITION"}, {"bufferView" : 3, "byteOffset" : 12, "componentType" : 5126, "count" : 9, "type" : "VEC3", "max" : [0, 0, -0], "min" : [-1.0000044107437134, -1.0000044107437134, -0], "name" : "NORMAL"}, {"bufferView" : 3, "byteOffset" : 24, "componentType" : 5126, "count" : 9, "type" : "VEC2", "max" : [0.6870933771133423, 1], "min" : [-0.39669352769851685, -6.502233505249023], "name" : "TEXCOORD_0"}, {"bufferView" : 0, "byteOffset" : 292, "componentType" : 5123, "count" : 105, "type" : "SCALAR", "max" : [95], "min" : [0]}, {"bufferView" : 4, "byteOffset" : 0, "componentType" : 5126, "count" : 96, "type" : "VEC3", "max" : [0, 0.2199999839067459, 3.609557054039112E-16], "min" : [-0.3400000035762787, 0, -0.17000000178813934], "name" : "POSITION"}, {"bufferView" : 4, "byteOffset" : 12, "componentType" : 5126, "count" : 96, "type" : "VEC3", "max" : [0.5000022053718567, 1.0000044107437134, 1.0000044107437134], "min" : [-0.9659300446510315, -1.0000044107437134, -0.8660292625427246], "name" : "NORMAL"}, {"bufferView" : 4, "byteOffset" : 24, "componentType" : 5126, "count" : 96, "type" : "VEC2", "max" : [13.38582706451416, 1], "min" : [-13.38582706451416, -7.661417007446289], "name" : "TEXCOORD_0"}, {"bufferView" : 0, "byteOffset" : 504, "componentType" : 5123, "count" : 30, "type" : "SCALAR", "max" : [28], "min" : [0]}, {"bufferView" : 5, "byteOffset" : 0, "componentType" : 5126, "count" : 29, "type" : "VEC3", "max" : [-0.017452171072363853, 0.19055673480033875, 3.609557054039112E-16], "min" : [-0.31055670976638794, 0.029443269595503807, -0.15527835488319397], "name" : "POSITION"}, {"bufferView" : 5, "byteOffset" : 12, "componentType" : 5126, "count" : 29, "type" : "VEC3", "max" : [1.0000044107437134, 0, 1.0000044107437134], "min" : [0, 0, -0.8660292625427246], "name" : "NORMAL"}, {"bufferView" : 5, "byteOffset" : 24, "componentType" : 5126, "count" : 29, "type" : "VEC2", "max" : [12.226642608642578, -0.15918385982513428], "min" : [-12.226642608642578, -6.502233505249023], "name" : "TEXCOORD_0"}, {"bufferView" : 0, "byteOffset" : 564, "componentType" : 5123, "count" : 9, "type" : "SCALAR", "max" : [8], "min" : [0]}, {"bufferView" : 6, "byteOffset" : 0, "componentType" : 5126, "count" : 9, "type" : "VEC3", "max" : [0, 0.19055673480033875, 3.609557054039112E-16], "min" : [-0.017452171072363853, 0.029443269595503807, -0.010076015256345272], "name" : "POSITION"}, {"bufferView" : 6, "byteOffset" : 12, "componentType" : 5126, "count" : 9, "type" : "VEC3", "max" : [0, 0, -0], "min" : [-1.0000044107437134, -1.0000044107437134, -0], "name" : "NORMAL"}, {"bufferView" : 6, "byteOffset" : 24, "componentType" : 5126, "count" : 9, "type" : "VEC2", "max" : [0.6870933771133423, 1], "min" : [-0.39669352769851685, -6.502233505249023], "name" : "TEXCOORD_0"}, {"bufferView" : 0, "byteOffset" : 584, "componentType" : 5123, "count" : 105, "type" : "SCALAR", "max" : [95], "min" : [0]}, {"bufferView" : 7, "byteOffset" : 0, "componentType" : 5126, "count" : 96, "type" : "VEC3", "max" : [0, 0.2199999839067459, 3.609557054039112E-16], "min" : [-0.3400000035762787, 0, -0.17000000178813934], "name" : "POSITION"}, {"bufferView" : 7, "byteOffset" : 12, "componentType" : 5126, "count" : 96, "type" : "VEC3", "max" : [0.5000022053718567, 1.0000044107437134, 1.0000044107437134], "min" : [-0.9659300446510315, -1.0000044107437134, -0.8660292625427246], "name" : "NORMAL"}, {"bufferView" : 7, "byteOffset" : 24, "componentType" : 5126, "count" : 96, "type" : "VEC2", "max" : [13.38582706451416, 1], "min" : [-13.38582706451416, -7.661417007446289], "name" : "TEXCOORD_0"}, {"bufferView" : 0, "byteOffset" : 796, "componentType" : 5123, "count" : 30, "type" : "SCALAR", "max" : [28], "min" : [0]}, {"bufferView" : 8, "byteOffset" : 0, "componentType" : 5126, "count" : 29, "type" : "VEC3", "max" : [-0.017452171072363853, 0.19055673480033875, 3.609557054039112E-16], "min" : [-0.31055670976638794, 0.029443269595503807, -0.15527835488319397], "name" : "POSITION"}, {"bufferView" : 8, "byteOffset" : 12, "componentType" : 5126, "count" : 29, "type" : "VEC3", "max" : [1.0000044107437134, 0, 1.0000044107437134], "min" : [0, 0, -0.8660292625427246], "name" : "NORMAL"}, {"bufferView" : 8, "byteOffset" : 24, "componentType" : 5126, "count" : 29, "type" : "VEC2", "max" : [12.226642608642578, -0.15918385982513428], "min" : [-12.226642608642578, -6.502233505249023], "name" : "TEXCOORD_0"}, {"bufferView" : 0, "byteOffset" : 856, "componentType" : 5123, "count" : 9, "type" : "SCALAR", "max" : [8], "min" : [0]}, {"bufferView" : 9, "byteOffset" : 0, "componentType" : 5126, "count" : 9, "type" : "VEC3", "max" : [0, 0.19055673480033875, 3.609557054039112E-16], "min" : [-0.017452171072363853, 0.029443269595503807, -0.010076015256345272], "name" : "POSITION"}, {"bufferView" : 9, "byteOffset" : 12, "componentType" : 5126, "count" : 9, "type" : "VEC3", "max" : [0, 0, -0], "min" : [-1.0000044107437134, -1.0000044107437134, -0], "name" : "NORMAL"}, {"bufferView" : 9, "byteOffset" : 24, "componentType" : 5126, "count" : 9, "type" : "VEC2", "max" : [0.6870933771133423, 1], "min" : [-0.39669352769851685, -6.502233505249023], "name" : "TEXCOORD_0"}], "asset" : {"generator" : "Aspose.3D 22.1", "version" : "2.0"}, "buffers" : [{"uri" : "data:application/octet-stream;base64,", "byteLength" : 14740}], "bufferViews" : [{"buffer" : 0, "byteOffset" : 0, "byteLength" : 876, "target" : 34963}, {"buffer" : 0, "byteOffset" : 880, "byteLength" : 3360, "byteStride" : 32, "target" : 34962}, {"buffer" : 0, "byteOffset" : 4244, "byteLength" : 960, "byteStride" : 32, "target" : 34962}, {"buffer" : 0, "byteOffset" : 5208, "byteLength" : 288, "byteStride" : 32, "target" : 34962}, {"buffer" : 0, "byteOffset" : 5500, "byteLength" : 3360, "byteStride" : 32, "target" : 34962}, {"buffer" : 0, "byteOffset" : 8864, "byteLength" : 960, "byteStride" : 32, "target" : 34962}, {"buffer" : 0, "byteOffset" : 9828, "byteLength" : 288, "byteStride" : 32, "target" : 34962}, {"buffer" : 0, "byteOffset" : 10120, "byteLength" : 3360, "byteStride" : 32, "target" : 34962}, {"buffer" : 0, "byteOffset" : 13484, "byteLength" : 960, "byteStride" : 32, "target" : 34962}, {"buffer" : 0, "byteOffset" : 14448, "byteLength" : 288, "byteStride" : 32, "target" : 34962}], "materials" : [{"name" : "yellow", "pbrMetallicRoughness" : {"baseColorFactor" : [0.9607843, 0.7254902, 0.258823544, 1], "metallicFactor" : 1, "roughnessFactor" : 1}, "emissiveFactor" : [0, 0, 0], "alphaMode" : "OPAQUE", "doubleSided" : false}, {"name" : "brownLight", "pbrMetallicRoughness" : {"baseColorFactor" : [0.9764706, 0.772549033, 0.549019635, 1], "metallicFactor" : 1, "roughnessFactor" : 1}, "emissiveFactor" : [0, 0, 0], "alphaMode" : "OPAQUE", "doubleSided" : false}, {"name" : "_defaultMat", "pbrMetallicRoughness" : {"baseColorFactor" : [1, 1, 1, 1], "metallicFactor" : 1, "roughnessFactor" : 1}, "emissiveFactor" : [0, 0, 0], "alphaMode" : "OPAQUE", "doubleSided" : false}, {"name" : "yellow", "pbrMetallicRoughness" : {"baseColorFactor" : [0.9607843, 0.7254902, 0.258823544, 1], "metallicFactor" : 1, "roughnessFactor" : 1}, "emissiveFactor" : [0, 0, 0], "alphaMode" : "OPAQUE", "doubleSided" : false}, {"name" : "brownLight", "pbrMetallicRoughness" : {"baseColorFactor" : [0.9764706, 0.772549033, 0.549019635, 1], "metallicFactor" : 1, "roughnessFactor" : 1}, "emissiveFactor" : [0, 0, 0], "alphaMode" : "OPAQUE", "doubleSided" : false}, {"name" : "_defaultMat", "pbrMetallicRoughness" : {"baseColorFactor" : [1, 1, 1, 1], "metallicFactor" : 1, "roughnessFactor" : 1}, "emissiveFactor" : [0, 0, 0], "alphaMode" : "OPAQUE", "doubleSided" : false}, {"name" : "yellow", "pbrMetallicRoughness" : {"baseColorFactor" : [0.9607843, 0.7254902, 0.258823544, 1], "metallicFactor" : 1, "roughnessFactor" : 1}, "emissiveFactor" : [0, 0, 0], "alphaMode" : "OPAQUE", "doubleSided" : false}, {"name" : "brownLight", "pbrMetallicRoughness" : {"baseColorFactor" : [0.9764706, 0.772549033, 0.549019635, 1], "metallicFactor" : 1, "roughnessFactor" : 1}, "emissiveFactor" : [0, 0, 0], "alphaMode" : "OPAQUE", "doubleSided" : false}, {"name" : "_defaultMat", "pbrMetallicRoughness" : {"baseColorFactor" : [1, 1, 1, 1], "metallicFactor" : 1, "roughnessFactor" : 1}, "emissiveFactor" : [0, 0, 0], "alphaMode" : "OPAQUE", "doubleSided" : false}], "meshes" : [{"primitives" : [{"attributes" : {"POSITION" : 1, "NORMAL" : 2, "TEXCOORD_0" : 3}, "indices" : 0, "material" : 0, "mode" : 4}, {"attributes" : {"POSITION" : 5, "NORMAL" : 6, "TEXCOORD_0" : 7}, "indices" : 4, "material" : 1, "mode" : 4}, {"attributes" : {"POSITION" : 9, "NORMAL" : 10, "TEXCOORD_0" : 11}, "indices" : 8, "material" : 2, "mode" : 4}]}, {"primitives" : [{"attributes" : {"POSITION" : 1, "NORMAL" : 2, "TEXCOORD_0" : 3}, "indices" : 0, "material" : 0, "mode" : 4}, {"attributes" : {"POSITION" : 5, "NORMAL" : 6, "TEXCOORD_0" : 7}, "indices" : 4, "material" : 1, "mode" : 4}, {"attributes" : {"POSITION" : 9, "NORMAL" : 10, "TEXCOORD_0" : 11}, "indices" : 8, "material" : 2, "mode" : 4}]}, {"primitives" : [{"attributes" : {"POSITION" : 1, "NORMAL" : 2, "TEXCOORD_0" : 3}, "indices" : 0, "material" : 0, "mode" : 4}, {"attributes" : {"POSITION" : 5, "NORMAL" : 6, "TEXCOORD_0" : 7}, "indices" : 4, "material" : 1, "mode" : 4}, {"attributes" : {"POSITION" : 9, "NORMAL" : 10, "TEXCOORD_0" : 11}, "indices" : 8, "material" : 2, "mode" : 4}]}, {"primitives" : [{"attributes" : {"POSITION" : 1, "NORMAL" : 2, "TEXCOORD_0" : 3}, "indices" : 0, "material" : 0, "mode" : 4}, {"attributes" : {"POSITION" : 5, "NORMAL" : 6, "TEXCOORD_0" : 7}, "indices" : 4, "material" : 1, "mode" : 4}, {"attributes" : {"POSITION" : 9, "NORMAL" : 10, "TEXCOORD_0" : 11}, "indices" : 8, "material" : 2, "mode" : 4}]}, {"primitives" : [{"attributes" : {"POSITION" : 1, "NORMAL" : 2, "TEXCOORD_0" : 3}, "indices" : 0, "material" : 0, "mode" : 4}, {"attributes" : {"POSITION" : 5, "NORMAL" : 6, "TEXCOORD_0" : 7}, "indices" : 4, "material" : 1, "mode" : 4}, {"attributes" : {"POSITION" : 9, "NORMAL" : 10, "TEXCOORD_0" : 11}, "indices" : 8, "material" : 2, "mode" : 4}]}, {"primitives" : [{"attributes" : {"POSITION" : 1, "NORMAL" : 2, "TEXCOORD_0" : 3}, "indices" : 0, "material" : 0, "mode" : 4}, {"attributes" : {"POSITION" : 5, "NORMAL" : 6, "TEXCOORD_0" : 7}, "indices" : 4, "material" : 1, "mode" : 4}, {"attributes" : {"POSITION" : 9, "NORMAL" : 10, "TEXCOORD_0" : 11}, "indices" : 8, "material" : 2, "mode" : 4}]}, {"primitives" : [{"attributes" : {"POSITION" : 1, "NORMAL" : 2, "TEXCOORD_0" : 3}, "indices" : 0, "material" : 0, "mode" : 4}, {"attributes" : {"POSITION" : 5, "NORMAL" : 6, "TEXCOORD_0" : 7}, "indices" : 4, "material" : 1, "mode" : 4}, {"attributes" : {"POSITION" : 9, "NORMAL" : 10, "TEXCOORD_0" : 11}, "indices" : 8, "material" : 2, "mode" : 4}]}, {"primitives" : [{"attributes" : {"POSITION" : 13, "NORMAL" : 14, "TEXCOORD_0" : 15}, "indices" : 12, "material" : 3, "mode" : 4}, {"attributes" : {"POSITION" : 17, "NORMAL" : 18, "TEXCOORD_0" : 19}, "indices" : 16, "material" : 4, "mode" : 4}, {"attributes" : {"POSITION" : 21, "NORMAL" : 22, "TEXCOORD_0" : 23}, "indices" : 20, "material" : 5, "mode" : 4}]}, {"primitives" : [{"attributes" : {"POSITION" : 1, "NORMAL" : 2, "TEXCOORD_0" : 3}, "indices" : 0, "material" : 0, "mode" : 4}, {"attributes" : {"POSITION" : 5, "NORMAL" : 6, "TEXCOORD_0" : 7}, "indices" : 4, "material" : 1, "mode" : 4}, {"attributes" : {"POSITION" : 9, "NORMAL" : 10, "TEXCOORD_0" : 11}, "indices" : 8, "material" : 2, "mode" : 4}]}, {"primitives" : [{"attributes" : {"POSITION" : 1, "NORMAL" : 2, "TEXCOORD_0" : 3}, "indices" : 0, "material" : 0, "mode" : 4}, {"attributes" : {"POSITION" : 5, "NORMAL" : 6, "TEXCOORD_0" : 7}, "indices" : 4, "material" : 1, "mode" : 4}, {"attributes" : {"POSITION" : 9, "NORMAL" : 10, "TEXCOORD_0" : 11}, "indices" : 8, "material" : 2, "mode" : 4}]}, {"primitives" : [{"attributes" : {"POSITION" : 1, "NORMAL" : 2, "TEXCOORD_0" : 3}, "indices" : 0, "material" : 0, "mode" : 4}, {"attributes" : {"POSITION" : 5, "NORMAL" : 6, "TEXCOORD_0" : 7}, "indices" : 4, "material" : 1, "mode" : 4}, {"attributes" : {"POSITION" : 9, "NORMAL" : 10, "TEXCOORD_0" : 11}, "indices" : 8, "material" : 2, "mode" : 4}]}, {"primitives" : [{"attributes" : {"POSITION" : 25, "NORMAL" : 26, "TEXCOORD_0" : 27}, "indices" : 24, "material" : 6, "mode" : 4}, {"attributes" : {"POSITION" : 29, "NORMAL" : 30, "TEXCOORD_0" : 31}, "indices" : 28, "material" : 7, "mode" : 4}, {"attributes" : {"POSITION" : 33, "NORMAL" : 34, "TEXCOORD_0" : 35}, "indices" : 32, "material" : 8, "mode" : 4}]}], "nodes" : [{"matrix" : [3.446876117862985E-08, 0, 1.0000000093718584, 0, 0, 1, 0, 0, -1.0000000093718584, 0, 3.446876117862985E-08, 0, 1.44382282E-15, -4.93494134E-17, 4.33146857E-15, 1], "mesh" : 0, "name" : "wedge"}, {"matrix" : [-0.5000001531672016, 0, 0.8660253960384732, 0, 0, 1, 0, 0, -0.8660253960384732, 0, -0.5000001531672016, 0, -2.16573429E-15, 0, 4.692424E-15, 1], "mesh" : 1, "name" : "wedge"}, {"matrix" : [-0.8660253022112798, 0, 0.5000000402855668, 0, 0, 1, 0, 0, -0.5000000402855668, 0, -0.8660253022112798, 0, -2.16573429E-15, 0, 4.692424E-15, 1], "mesh" : 2, "name" : "wedge"}, {"matrix" : [0.5, 0, -0.8660254, 0, 0, 1, 0, 0, 0.8660254, 0, 0.5, 0, 1.44382282E-15, 0, -5.4143354E-15, 1], "mesh" : 3, "name" : "wedge"}, {"matrix" : [-0.49999998689031977, 0, -0.8660255039230479, 0, 0, 1, 0, 0, 0.8660255039230479, 0, -0.49999998689031977, 0, 1.44382282E-15, 0, -4.33146857E-15, 1], "mesh" : 4, "name" : "wedge"}, {"matrix" : [3.446876117862985E-08, 0, -1.0000000093718584, 0, 0, 1, 0, 0, 1.0000000093718584, 0, 3.446876117862985E-08, 0, 1.44382282E-15, 0, -4.33146857E-15, 1], "mesh" : 5, "name" : "wedge"}, {"matrix" : [-1, 0, -8.742278E-08, 0, 0, 1, 0, 0, 8.742278E-08, 0, -1, 0, -2.88764564E-15, 0, 1.80477861E-15, 1], "mesh" : 6, "name" : "wedge"}, {"matrix" : [0.86602555400558, 0, -0.49999975783902006, 0, 0, 1, 0, 0, 0.49999975783902006, 0, 0.86602555400558, 0, 2.16573429E-15, 0, -3.60955721E-15, 1], "mesh" : 7, "name" : "wedge"}, {"matrix" : [0.86602555400558, 0, 0.49999975783902006, 0, 0, 1, 0, 0, -0.49999975783902006, 0, 0.86602555400558, 0, 2.88764564E-15, 0, 2.88764564E-15, 1], "mesh" : 8, "name" : "wedge"}, {"matrix" : [0.5, 0, 0.8660254, 0, 0, 1, 0, 0, -0.8660254, 0, 0.5, 0, 2.16573429E-15, 0, 3.97051268E-15, 1], "mesh" : 9, "name" : "wedge"}, {"matrix" : [-0.86602568858162, 0, -0.5000000920493815, 0, 0, 1, 0, 0, 0.5000000920493815, 0, -0.86602568858162, 0, -3.60955721E-15, 0, 2.88764564E-15, 1], "mesh" : 10, "name" : "wedge"}, {"mesh" : 11, "name" : "wedge"}, {"children" : [0, 1, 2, 3, 4, 5, 6, 7, 8, 9, 10, 11], "name" : "cheese"}], "scene" : 0, "scenes" : [{"nodes" : [12]}]}