{"accessors" : [{"bufferView" : 0, "byteOffset" : 0, "componentType" : 5123, "count" : 204, "type" : "SCALAR", "max" : [191], "min" : [0]}, {"bufferView" : 1, "byteOffset" : 0, "componentType" : 5126, "count" : 192, "type" : "VEC3", "max" : [0.17320509254932404, 0.4000000059604645, 0.05000000074505806], "min" : [-0.17320509254932404, 0, -0.05000000074505806], "name" : "POSITION"}, {"bufferView" : 1, "byteOffset" : 12, "componentType" : 5126, "count" : 192, "type" : "VEC3", "max" : [1.0000044107437134, 0.8660294413566589, 1.0000044107437134], "min" : [-1.0000044107437134, -0.8660293221473694, -1.0000044107437134], "name" : "NORMAL"}, {"bufferView" : 1, "byteOffset" : 24, "componentType" : 5126, "count" : 192, "type" : "VEC2", "max" : [6.819098472595215, 14.748031616210938], "min" : [-6.819098472595215, -1.000001311302185], "name" : "TEXCOORD_0"}, {"bufferView" : 0, "byteOffset" : 408, "componentType" : 5123, "count" : 72, "type" : "SCALAR", "max" : [61], "min" : [0]}, {"bufferView" : 2, "byteOffset" : 0, "componentType" : 5126, "count" : 62, "type" : "VEC3", "max" : [0.12361139804124832, 0.3427341878414154, 0.009999999776482582], "min" : [-0.12361149489879608, 0.05726582929491997, -0.009999999776482582], "name" : "POSITION"}, {"bufferView" : 2, "byteOffset" : 12, "componentType" : 5126, "count" : 62, "type" : "VEC3", "max" : [0, 0, 1.0000044107437134], "min" : [0, 0, -1.0000044107437134], "name" : "NORMAL"}, {"bufferView" : 2, "byteOffset" : 24, "componentType" : 5126, "count" : 62, "type" : "VEC2", "max" : [4.866594314575195, 12.4934720993042], "min" : [-4.866594314575195, 1.2545602321624756], "name" : "TEXCOORD_0"}], "asset" : {"generator" : "Aspose.3D 22.1", "version" : "2.0"}, "buffers" : [{"uri" : "data:application/octet-stream;base64,", "byteLength" : 9396}], "bufferViews" : [{"buffer" : 0, "byteOffset" : 0, "byteLength" : 552, "target" : 34963}, {"buffer" : 0, "byteOffset" : 556, "byteLength" : 6528, "byteStride" : 32, "target" : 34962}, {"buffer" : 0, "byteOffset" : 7088, "byteLength" : 2304, "byteStride" : 32, "target" : 34962}], "materials" : [{"name" : "gold", "pbrMetallicRoughness" : {"baseColorFactor" : [0.9607843, 0.7254902, 0.258823544, 1], "metallicFactor" : 1, "roughnessFactor" : 1}, "emissiveFactor" : [0, 0, 0], "alphaMode" : "OPAQUE", "doubleSided" : false}, {"name" : "wood", "pbrMetallicRoughness" : {"baseColorFactor" : [0.8666667, 0.533333361, 0.309803933, 1], "metallicFactor" : 1, "roughnessFactor" : 1}, "emissiveFactor" : [0, 0, 0], "alphaMode" : "OPAQUE", "doubleSided" : false}], "meshes" : [{"primitives" : [{"attributes" : {"POSITION" : 1, "NORMAL" : 2, "TEXCOORD_0" : 3}, "indices" : 0, "material" : 0, "mode" : 4}, {"attributes" : {"POSITION" : 5, "NORMAL" : 6, "TEXCOORD_0" : 7}, "indices" : 4, "material" : 1, "mode" : 4}]}], "nodes" : [{"matrix" : [1, 0, 0, 0, 0, 1, 0, 0, 0, 0, 1, 0, -1, 0, 0.5, 1], "mesh" : 0, "name" : "coinGold"}], "scene" : 0, "scenes" : [{"nodes" : [0]}]}