{"accessors" : [{"bufferView" : 0, "byteOffset" : 0, "componentType" : 5123, "count" : 2112, "type" : "SCALAR", "max" : [1964], "min" : [0]}, {"bufferView" : 1, "byteOffset" : 0, "componentType" : 5126, "count" : 1965, "type" : "VEC3", "max" : [0.6499999761581421, 1.100000023841858, 1.600000023841858], "min" : [-0.6499999761581421, 0, -1.600000023841858], "name" : "POSITION"}, {"bufferView" : 1, "byteOffset" : 12, "componentType" : 5126, "count" : 1965, "type" : "VEC3", "max" : [1.0000044107437134, 1.0000044107437134, 1.0000044107437134], "min" : [-1.0000044107437134, -1.0000044107437134, -1.0000044107437134], "name" : "NORMAL"}, {"bufferView" : 1, "byteOffset" : 24, "componentType" : 5126, "count" : 1965, "type" : "VEC2", "max" : [62.99212646484375, 61.99212646484375], "min" : [-62.99212646484375, -63.99212646484375], "name" : "TEXCOORD_0"}, {"bufferView" : 0, "byteOffset" : 4224, "componentType" : 5123, "count" : 276, "type" : "SCALAR", "max" : [252], "min" : [0]}, {"bufferView" : 2, "byteOffset" : 0, "componentType" : 5126, "count" : 253, "type" : "VEC3", "max" : [0.75, 1.100000023841858, 1.600000023841858], "min" : [-0.75, 0.10000000149011612, -1.5], "name" : "POSITION"}, {"bufferView" : 2, "byteOffset" : 12, "componentType" : 5126, "count" : 253, "type" : "VEC3", "max" : [1.0000044107437134, 1.0000044107437134, 1.0000044107437134], "min" : [-1.0000044107437134, -1.0000044107437134, -1.0000044107437134], "name" : "NORMAL"}, {"bufferView" : 2, "byteOffset" : 24, "componentType" : 5126, "count" : 253, "type" : "VEC2", "max" : [59.055118560791016, 46.24409484863281], "min" : [-59.055118560791016, -63.99212646484375], "name" : "TEXCOORD_0"}, {"bufferView" : 0, "byteOffset" : 4776, "componentType" : 5123, "count" : 30, "type" : "SCALAR", "max" : [29], "min" : [0]}, {"bufferView" : 3, "byteOffset" : 0, "componentType" : 5126, "count" : 30, "type" : "VEC3", "max" : [0.550000011920929, 1.0071523189544678, -0.4469214975833893], "min" : [-0.550000011920929, 0.6000000238418579, -1.2000000476837158], "name" : "POSITION"}, {"bufferView" : 3, "byteOffset" : 12, "componentType" : 5126, "count" : 30, "type" : "VEC3", "max" : [0.9805850386619568, 0.37139227986335754, 1.0000044107437134], "min" : [-0.9805850386619568, 0, -0.9284807443618774], "name" : "NORMAL"}, {"bufferView" : 3, "byteOffset" : 24, "componentType" : 5126, "count" : 30, "type" : "VEC2", "max" : [43.01506805419922, 38.370079040527344], "min" : [-43.01506805419922, 3.3865041732788086], "name" : "TEXCOORD_0"}, {"bufferView" : 0, "byteOffset" : 4836, "componentType" : 5123, "count" : 18, "type" : "SCALAR", "max" : [15], "min" : [0]}, {"bufferView" : 4, "byteOffset" : 0, "componentType" : 5126, "count" : 16, "type" : "VEC3", "max" : [0.6499999761581421, 0.30000001192092896, 1.600000023841858], "min" : [-0.6499999761581421, 0.20000000298023224, 1.600000023841858], "name" : "POSITION"}, {"bufferView" : 4, "byteOffset" : 12, "componentType" : 5126, "count" : 16, "type" : "VEC3", "max" : [0.03271923214197159, 0, 1.0000044107437134], "min" : [0, 0, 0.999468982219696], "name" : "NORMAL"}, {"bufferView" : 4, "byteOffset" : 24, "componentType" : 5126, "count" : 16, "type" : "VEC2", "max" : [25.590551376342773, 10.811023712158203], "min" : [-25.590551376342773, 6.874015808105469], "name" : "TEXCOORD_0"}, {"bufferView" : 0, "byteOffset" : 4872, "componentType" : 5123, "count" : 12, "type" : "SCALAR", "max" : [11], "min" : [0]}, {"bufferView" : 5, "byteOffset" : 0, "componentType" : 5126, "count" : 12, "type" : "VEC3", "max" : [0.550000011920929, 0.5, -1.5], "min" : [-0.550000011920929, 0.4000000059604645, -1.5], "name" : "POSITION"}, {"bufferView" : 5, "byteOffset" : 12, "componentType" : 5126, "count" : 12, "type" : "VEC3", "max" : [0, 0, -1.0000044107437134], "min" : [0, 0, -1.0000044107437134], "name" : "NORMAL"}, {"bufferView" : 5, "byteOffset" : 24, "componentType" : 5126, "count" : 12, "type" : "VEC2", "max" : [21.65354347229004, 18.685039520263672], "min" : [-21.65354347229004, 14.748031616210938], "name" : "TEXCOORD_0"}, {"bufferView" : 0, "byteOffset" : 4896, "componentType" : 5123, "count" : 12, "type" : "SCALAR", "max" : [11], "min" : [0]}, {"bufferView" : 6, "byteOffset" : 0, "componentType" : 5126, "count" : 12, "type" : "VEC3", "max" : [0.75, 0.6000000238418579, -1.100000023841858], "min" : [-0.75, 0.5, -1.100000023841858], "name" : "POSITION"}, {"bufferView" : 6, "byteOffset" : 12, "componentType" : 5126, "count" : 12, "type" : "VEC3", "max" : [0, 0, 1.0000044107437134], "min" : [0, 0, 1.0000044107437134], "name" : "NORMAL"}, {"bufferView" : 6, "byteOffset" : 24, "componentType" : 5126, "count" : 12, "type" : "VEC2", "max" : [29.527559280395508, 46.24409484863281], "min" : [21.65354347229004, 42.30708694458008], "name" : "TEXCOORD_0"}, {"bufferView" : 0, "byteOffset" : 4920, "componentType" : 5123, "count" : 498, "type" : "SCALAR", "max" : [463], "min" : [0]}, {"bufferView" : 7, "byteOffset" : 0, "componentType" : 5126, "count" : 464, "type" : "VEC3", "max" : [0.30000001192092896, 0.30000001192092896, 0.30000001192092896], "min" : [0.05000000074505806, -0.30000001192092896, -0.30000001192092896], "name" : "POSITION"}, {"bufferView" : 7, "byteOffset" : 12, "componentType" : 5126, "count" : 464, "type" : "VEC3", "max" : [1.0000044107437134, 1.0000044107437134, 1.0000044107437134], "min" : [-1.0000044107437134, -1.0000044107437134, -1.0000044107437134], "name" : "NORMAL"}, {"bufferView" : 7, "byteOffset" : 24, "componentType" : 5126, "count" : 464, "type" : "VEC2", "max" : [11.811023712158203, 12.811023712158203], "min" : [-11.811023712158203, -10.811023712158203], "name" : "TEXCOORD_0"}, {"bufferView" : 0, "byteOffset" : 5916, "componentType" : 5123, "count" : 432, "type" : "SCALAR", "max" : [429], "min" : [0]}, {"bufferView" : 8, "byteOffset" : 0, "componentType" : 5126, "count" : 430, "type" : "VEC3", "max" : [0.30000001192092896, 0.154327854514122, 0.154327854514122], "min" : [0.25, -0.154327854514122, -0.154327854514122], "name" : "POSITION"}, {"bufferView" : 8, "byteOffset" : 12, "componentType" : 5126, "count" : 430, "type" : "VEC3", "max" : [1.0000044107437134, 0.9784470796585083, 0.9784470796585083], "min" : [0.20651856064796448, -0.9784470796585083, -0.9784470796585083], "name" : "NORMAL"}, {"bufferView" : 8, "byteOffset" : 24, "componentType" : 5126, "count" : 430, "type" : "VEC2", "max" : [7.874015808105469, 2.922822952270508], "min" : [-6.854990005493164, -0.5416479110717773], "name" : "TEXCOORD_0"}, {"bufferView" : 0, "byteOffset" : 6780, "componentType" : 5123, "count" : 210, "type" : "SCALAR", "max" : [199], "min" : [0]}, {"bufferView" : 9, "byteOffset" : 0, "componentType" : 5126, "count" : 200, "type" : "VEC3", "max" : [0.30000001192092896, 0.06024445220828056, 0.06024445220828056], "min" : [0.25, -0.06024445220828056, -0.06024445220828056], "name" : "POSITION"}, {"bufferView" : 9, "byteOffset" : 12, "componentType" : 5126, "count" : 200, "type" : "VEC3", "max" : [1.0000044107437134, 0.9636843204498291, 0.9636843204498291], "min" : [0.2670605182647705, -0.9636843204498291, -0.9636843204498291], "name" : "NORMAL"}, {"bufferView" : 9, "byteOffset" : 24, "componentType" : 5126, "count" : 200, "type" : "VEC2", "max" : [10.910934448242188, 10.875612258911133], "min" : [-10.910934448242188, -8.875612258911133], "name" : "TEXCOORD_0"}], "asset" : {"generator" : "Aspose.3D 22.1", "version" : "2.0"}, "buffers" : [{"uri" : "data:application/octet-stream;base64,", "byteLength" : 122440}], "bufferViews" : [{"buffer" : 0, "byteOffset" : 0, "byteLength" : 7200, "target" : 34963}, {"buffer" : 0, "byteOffset" : 7204, "byteLength" : 67584, "byteStride" : 32, "target" : 34962}, {"buffer" : 0, "byteOffset" : 74792, "byteLength" : 8832, "byteStride" : 32, "target" : 34962}, {"buffer" : 0, "byteOffset" : 83628, "byteLength" : 960, "byteStride" : 32, "target" : 34962}, {"buffer" : 0, "byteOffset" : 84592, "byteLength" : 576, "byteStride" : 32, "target" : 34962}, {"buffer" : 0, "byteOffset" : 85172, "byteLength" : 384, "byteStride" : 32, "target" : 34962}, {"buffer" : 0, "byteOffset" : 85560, "byteLength" : 384, "byteStride" : 32, "target" : 34962}, {"buffer" : 0, "byteOffset" : 85948, "byteLength" : 15936, "byteStride" : 32, "target" : 34962}, {"buffer" : 0, "byteOffset" : 101888, "byteLength" : 13824, "byteStride" : 32, "target" : 34962}, {"buffer" : 0, "byteOffset" : 115716, "byteLength" : 6720, "byteStride" : 32, "target" : 34962}], "materials" : [{"name" : "plastic", "pbrMetallicRoughness" : {"baseColorFactor" : [0.3764706, 0.3764706, 0.3764706, 1], "metallicFactor" : 1, "roughnessFactor" : 1}, "emissiveFactor" : [0, 0, 0], "alphaMode" : "OPAQUE", "doubleSided" : false}, {"name" : "paintRed", "pbrMetallicRoughness" : {"baseColorFactor" : [1, 0.227450982, 0.3019608, 1], "metallicFactor" : 1, "roughnessFactor" : 1}, "emissiveFactor" : [0, 0, 0], "alphaMode" : "OPAQUE", "doubleSided" : false}, {"name" : "window", "pbrMetallicRoughness" : {"baseColorFactor" : [0.9372549, 0.9372549, 0.9372549, 1], "metallicFactor" : 1, "roughnessFactor" : 1}, "emissiveFactor" : [0, 0, 0], "alphaMode" : "OPAQUE", "doubleSided" : false}, {"name" : "lightBack", "pbrMetallicRoughness" : {"baseColorFactor" : [1, 0.349019617, 0.227450982, 1], "metallicFactor" : 1, "roughnessFactor" : 1}, "emissiveFactor" : [0, 0, 0], "alphaMode" : "OPAQUE", "doubleSided" : false}, {"name" : "lightFront", "pbrMetallicRoughness" : {"baseColorFactor" : [1, 0.9762833, 0.9292453, 1], "metallicFactor" : 1, "roughnessFactor" : 1}, "emissiveFactor" : [0, 0, 0], "alphaMode" : "OPAQUE", "doubleSided" : false}, {"name" : "_defaultMat", "pbrMetallicRoughness" : {"baseColorFactor" : [1, 1, 1, 1], "metallicFactor" : 1, "roughnessFactor" : 1}, "emissiveFactor" : [0, 0, 0], "alphaMode" : "OPAQUE", "doubleSided" : false}, {"name" : "carTire", "pbrMetallicRoughness" : {"baseColorFactor" : [0.239215687, 0.239215687, 0.239215687, 1], "metallicFactor" : 1, "roughnessFactor" : 1}, "emissiveFactor" : [0, 0, 0], "alphaMode" : "OPAQUE", "doubleSided" : false}, {"name" : "_defaultMat", "pbrMetallicRoughness" : {"baseColorFactor" : [1, 1, 1, 1], "metallicFactor" : 1, "roughnessFactor" : 1}, "emissiveFactor" : [0, 0, 0], "alphaMode" : "OPAQUE", "doubleSided" : false}, {"name" : "plastic", "pbrMetallicRoughness" : {"baseColorFactor" : [0.3764706, 0.3764706, 0.3764706, 1], "metallicFactor" : 1, "roughnessFactor" : 1}, "emissiveFactor" : [0, 0, 0], "alphaMode" : "OPAQUE", "doubleSided" : false}], "meshes" : [{"primitives" : [{"attributes" : {"POSITION" : 1, "NORMAL" : 2, "TEXCOORD_0" : 3}, "indices" : 0, "material" : 0, "mode" : 4}, {"attributes" : {"POSITION" : 5, "NORMAL" : 6, "TEXCOORD_0" : 7}, "indices" : 4, "material" : 1, "mode" : 4}, {"attributes" : {"POSITION" : 9, "NORMAL" : 10, "TEXCOORD_0" : 11}, "indices" : 8, "material" : 2, "mode" : 4}, {"attributes" : {"POSITION" : 13, "NORMAL" : 14, "TEXCOORD_0" : 15}, "indices" : 12, "material" : 3, "mode" : 4}, {"attributes" : {"POSITION" : 17, "NORMAL" : 18, "TEXCOORD_0" : 19}, "indices" : 16, "material" : 4, "mode" : 4}, {"attributes" : {"POSITION" : 21, "NORMAL" : 22, "TEXCOORD_0" : 23}, "indices" : 20, "material" : 5, "mode" : 4}]}, {"primitives" : [{"attributes" : {"POSITION" : 25, "NORMAL" : 26, "TEXCOORD_0" : 27}, "indices" : 24, "material" : 6, "mode" : 4}, {"attributes" : {"POSITION" : 29, "NORMAL" : 30, "TEXCOORD_0" : 31}, "indices" : 28, "material" : 7, "mode" : 4}, {"attributes" : {"POSITION" : 33, "NORMAL" : 34, "TEXCOORD_0" : 35}, "indices" : 32, "material" : 8, "mode" : 4}]}, {"primitives" : [{"attributes" : {"POSITION" : 25, "NORMAL" : 26, "TEXCOORD_0" : 27}, "indices" : 24, "material" : 6, "mode" : 4}, {"attributes" : {"POSITION" : 29, "NORMAL" : 30, "TEXCOORD_0" : 31}, "indices" : 28, "material" : 7, "mode" : 4}, {"attributes" : {"POSITION" : 33, "NORMAL" : 34, "TEXCOORD_0" : 35}, "indices" : 32, "material" : 8, "mode" : 4}]}, {"primitives" : [{"attributes" : {"POSITION" : 25, "NORMAL" : 26, "TEXCOORD_0" : 27}, "indices" : 24, "material" : 6, "mode" : 4}, {"attributes" : {"POSITION" : 29, "NORMAL" : 30, "TEXCOORD_0" : 31}, "indices" : 28, "material" : 7, "mode" : 4}, {"attributes" : {"POSITION" : 33, "NORMAL" : 34, "TEXCOORD_0" : 35}, "indices" : 32, "material" : 8, "mode" : 4}]}, {"primitives" : [{"attributes" : {"POSITION" : 25, "NORMAL" : 26, "TEXCOORD_0" : 27}, "indices" : 24, "material" : 6, "mode" : 4}, {"attributes" : {"POSITION" : 29, "NORMAL" : 30, "TEXCOORD_0" : 31}, "indices" : 28, "material" : 7, "mode" : 4}, {"attributes" : {"POSITION" : 33, "NORMAL" : 34, "TEXCOORD_0" : 35}, "indices" : 32, "material" : 8, "mode" : 4}]}], "nodes" : [{"matrix" : [1, 0, 0, 0, 0, 1, 0, 0, 0, 0, 1, 0, 2.598881E-14, 0.2, 0, 1], "mesh" : 0, "name" : "body"}, {"matrix" : [-1, 0, 0, 0, 0, 1, 0, 0, 0, 0, 1, 0, -0.35, 0.3, 0.61, 1], "mesh" : 1, "name" : "wheel_backLeft"}, {"matrix" : [1, 0, 8.742278E-08, 0, 0, 1, 0, 0, 8.742278E-08, 0, -1, 0, 0.35, 0.3, 0.61, 1], "mesh" : 2, "name" : "wheel_backRight"}, {"matrix" : [-1, 0, 0, 0, 0, 1, 0, 0, 0, 0, 1, 0, -0.35, 0.3, -1.01, 1], "mesh" : 3, "name" : "wheel_frontLeft"}, {"matrix" : [1, 0, 8.742278E-08, 0, 0, 1, 0, 0, 8.742278E-08, 0, -1, 0, 0.35, 0.3, -1.01, 1], "mesh" : 4, "name" : "wheel_frontRight"}, {"children" : [0, 1, 2, 3, 4], "name" : "deliveryFlat"}], "scene" : 0, "scenes" : [{"nodes" : [5]}]}