{"accessors" : [{"bufferView" : 0, "byteOffset" : 0, "componentType" : 5123, "count" : 24, "type" : "SCALAR", "max" : [21], "min" : [0]}, {"bufferView" : 1, "byteOffset" : 0, "componentType" : 5126, "count" : 22, "type" : "VEC3", "max" : [0.6499999761581421, 0.30000001192092896, 1.600000023841858], "min" : [-0.6499999761581421, 0.20000000298023224, 1.600000023841858], "name" : "POSITION"}, {"bufferView" : 1, "byteOffset" : 12, "componentType" : 5126, "count" : 22, "type" : "VEC3", "max" : [0, 0, 1.0000044107437134], "min" : [0, 0, 1.0000044107437134], "name" : "NORMAL"}, {"bufferView" : 1, "byteOffset" : 24, "componentType" : 5126, "count" : 22, "type" : "VEC2", "max" : [25.590551376342773, -6.874015808105469], "min" : [-25.590551376342773, -10.811023712158203], "name" : "TEXCOORD_0"}, {"bufferView" : 0, "byteOffset" : 48, "componentType" : 5123, "count" : 240, "type" : "SCALAR", "max" : [211], "min" : [0]}, {"bufferView" : 2, "byteOffset" : 0, "componentType" : 5126, "count" : 212, "type" : "VEC3", "max" : [0.6499999761581421, 1.399999976158142, 1.600000023841858], "min" : [-0.6499999761581421, 0.10000000149011612, -0.4469214975833893], "name" : "POSITION"}, {"bufferView" : 2, "byteOffset" : 12, "componentType" : 5126, "count" : 212, "type" : "VEC3", "max" : [1.0000044107437134, 1.0000044107437134, 1.0000044107437134], "min" : [-1.0000044107437134, -1.0000044107437134, -1.0000044107437134], "name" : "NORMAL"}, {"bufferView" : 2, "byteOffset" : 24, "componentType" : 5126, "count" : 212, "type" : "VEC2", "max" : [62.99212646484375, 63.99212646484375], "min" : [-62.99212646484375, -54.11811065673828], "name" : "TEXCOORD_0"}, {"bufferView" : 0, "byteOffset" : 528, "componentType" : 5123, "count" : 1782, "type" : "SCALAR", "max" : [1664], "min" : [0]}, {"bufferView" : 3, "byteOffset" : 0, "componentType" : 5126, "count" : 1665, "type" : "VEC3", "max" : [0.6499999761581421, 1.2999999523162842, 1.600000023841858], "min" : [-0.6499999761581421, 0, -1.600000023841858], "name" : "POSITION"}, {"bufferView" : 3, "byteOffset" : 12, "componentType" : 5126, "count" : 1665, "type" : "VEC3", "max" : [1.0000044107437134, 1.0000044107437134, 1.0000044107437134], "min" : [-1.0000044107437134, -1.0000044107437134, -1.0000044107437134], "name" : "NORMAL"}, {"bufferView" : 3, "byteOffset" : 24, "componentType" : 5126, "count" : 1665, "type" : "VEC2", "max" : [62.99212646484375, 63.99212646484375], "min" : [-62.99212646484375, -61.99212646484375], "name" : "TEXCOORD_0"}, {"bufferView" : 0, "byteOffset" : 4092, "componentType" : 5123, "count" : 246, "type" : "SCALAR", "max" : [229], "min" : [0]}, {"bufferView" : 4, "byteOffset" : 0, "componentType" : 5126, "count" : 230, "type" : "VEC3", "max" : [0.75, 1.100000023841858, -0.4469214975833893], "min" : [-0.75, 0.30000001192092896, -1.5], "name" : "POSITION"}, {"bufferView" : 4, "byteOffset" : 12, "componentType" : 5126, "count" : 230, "type" : "VEC3", "max" : [1.0000044107437134, 1.0000044107437134, -0], "min" : [-1.0000044107437134, -1.0000044107437134, -1.0000044107437134], "name" : "NORMAL"}, {"bufferView" : 4, "byteOffset" : 24, "componentType" : 5126, "count" : 230, "type" : "VEC2", "max" : [59.055118560791016, 53.517555236816406], "min" : [-59.055118560791016, -37.99159240722656], "name" : "TEXCOORD_0"}, {"bufferView" : 0, "byteOffset" : 4584, "componentType" : 5123, "count" : 18, "type" : "SCALAR", "max" : [17], "min" : [0]}, {"bufferView" : 5, "byteOffset" : 0, "componentType" : 5126, "count" : 18, "type" : "VEC3", "max" : [0.75, 0.699999988079071, -0.772902250289917], "min" : [-0.75, 0.5, -0.772902250289917], "name" : "POSITION"}, {"bufferView" : 5, "byteOffset" : 12, "componentType" : 5126, "count" : 18, "type" : "VEC3", "max" : [0, 0, 1.0000044107437134], "min" : [0, 0, 1.0000044107437134], "name" : "NORMAL"}, {"bufferView" : 5, "byteOffset" : 24, "componentType" : 5126, "count" : 18, "type" : "VEC2", "max" : [25.590551376342773, 31.69167709350586], "min" : [-24.932634353637695, -12.941388130187988], "name" : "TEXCOORD_0"}, {"bufferView" : 0, "byteOffset" : 4620, "componentType" : 5123, "count" : 12, "type" : "SCALAR", "max" : [11], "min" : [0]}, {"bufferView" : 6, "byteOffset" : 0, "componentType" : 5126, "count" : 12, "type" : "VEC3", "max" : [0.550000011920929, 0.5, -1.5], "min" : [-0.550000011920929, 0.4000000059604645, -1.5], "name" : "POSITION"}, {"bufferView" : 6, "byteOffset" : 12, "componentType" : 5126, "count" : 12, "type" : "VEC3", "max" : [0, 0, -1.0000044107437134], "min" : [0, 0, -1.0000044107437134], "name" : "NORMAL"}, {"bufferView" : 6, "byteOffset" : 24, "componentType" : 5126, "count" : 12, "type" : "VEC2", "max" : [21.65354347229004, -14.748031616210938], "min" : [-21.65354347229004, -18.685039520263672], "name" : "TEXCOORD_0"}, {"bufferView" : 0, "byteOffset" : 4644, "componentType" : 5123, "count" : 42, "type" : "SCALAR", "max" : [38], "min" : [0]}, {"bufferView" : 7, "byteOffset" : 0, "componentType" : 5126, "count" : 39, "type" : "VEC3", "max" : [0.550000011920929, 1.0071523189544678, -0.4469214975833893], "min" : [-0.550000011920929, 0.6000000238418579, -1.100000023841858], "name" : "POSITION"}, {"bufferView" : 7, "byteOffset" : 12, "componentType" : 5126, "count" : 39, "type" : "VEC3", "max" : [0.9805850386619568, 0.37139227986335754, -0], "min" : [-0.9805850386619568, 0.19611699879169464, -0.9284807443618774], "name" : "NORMAL"}, {"bufferView" : 7, "byteOffset" : 24, "componentType" : 5126, "count" : 39, "type" : "VEC2", "max" : [39.078060150146484, -4.848671913146973], "min" : [-39.078060150146484, -34.05458450317383], "name" : "TEXCOORD_0"}, {"bufferView" : 0, "byteOffset" : 4728, "componentType" : 5123, "count" : 54, "type" : "SCALAR", "max" : [53], "min" : [0]}, {"bufferView" : 8, "byteOffset" : 0, "componentType" : 5126, "count" : 54, "type" : "VEC3", "max" : [0.550000011920929, 1.804778527019556E-16, 0.02500000037252903], "min" : [-0.550000011920929, -1, -0.02500000037252903], "name" : "POSITION"}, {"bufferView" : 8, "byteOffset" : 12, "componentType" : 5126, "count" : 54, "type" : "VEC3", "max" : [1.0000044107437134, 1.0000044107437134, 1.0000044107437134], "min" : [-1.0000044107437134, -1.0000044107437134, -1.0000044107437134], "name" : "NORMAL"}, {"bufferView" : 8, "byteOffset" : 24, "componentType" : 5126, "count" : 54, "type" : "VEC2", "max" : [21.65354347229004, -0.015748023986816406], "min" : [-21.65354347229004, -40.370079040527344], "name" : "TEXCOORD_0"}, {"bufferView" : 0, "byteOffset" : 4836, "componentType" : 5123, "count" : 6, "type" : "SCALAR", "max" : [5], "min" : [0]}, {"bufferView" : 9, "byteOffset" : 0, "componentType" : 5126, "count" : 6, "type" : "VEC3", "max" : [0.10000000149011612, -0.8999999761581421, 0.02500000037252903], "min" : [-0.10000000149011612, -1, 0.02500000037252903], "name" : "POSITION"}, {"bufferView" : 9, "byteOffset" : 12, "componentType" : 5126, "count" : 6, "type" : "VEC3", "max" : [0, 0, 1.0000044107437134], "min" : [0, 0, 1.0000044107437134], "name" : "NORMAL"}, {"bufferView" : 9, "byteOffset" : 24, "componentType" : 5126, "count" : 6, "type" : "VEC2", "max" : [0.9842519760131836, -1], "min" : [-0.9842519760131836, -40.370079040527344], "name" : "TEXCOORD_0"}, {"bufferView" : 0, "byteOffset" : 4848, "componentType" : 5123, "count" : 498, "type" : "SCALAR", "max" : [463], "min" : [0]}, {"bufferView" : 10, "byteOffset" : 0, "componentType" : 5126, "count" : 464, "type" : "VEC3", "max" : [0.30000001192092896, 0.30000001192092896, 0.30000001192092896], "min" : [0.05000000074505806, -0.30000001192092896, -0.30000001192092896], "name" : "POSITION"}, {"bufferView" : 10, "byteOffset" : 12, "componentType" : 5126, "count" : 464, "type" : "VEC3", "max" : [1.0000044107437134, 1.0000044107437134, 1.0000044107437134], "min" : [-1.0000044107437134, -1.0000044107437134, -1.0000044107437134], "name" : "NORMAL"}, {"bufferView" : 10, "byteOffset" : 24, "componentType" : 5126, "count" : 464, "type" : "VEC2", "max" : [11.811023712158203, 12.811023712158203], "min" : [-11.811023712158203, -10.811023712158203], "name" : "TEXCOORD_0"}, {"bufferView" : 0, "byteOffset" : 5844, "componentType" : 5123, "count" : 432, "type" : "SCALAR", "max" : [429], "min" : [0]}, {"bufferView" : 11, "byteOffset" : 0, "componentType" : 5126, "count" : 430, "type" : "VEC3", "max" : [0.30000001192092896, 0.154327854514122, 0.154327854514122], "min" : [0.25, -0.154327854514122, -0.154327854514122], "name" : "POSITION"}, {"bufferView" : 11, "byteOffset" : 12, "componentType" : 5126, "count" : 430, "type" : "VEC3", "max" : [1.0000044107437134, 0.9784470796585083, 0.9784470796585083], "min" : [0.20651856064796448, -0.9784470796585083, -0.9784470796585083], "name" : "NORMAL"}, {"bufferView" : 11, "byteOffset" : 24, "componentType" : 5126, "count" : 430, "type" : "VEC2", "max" : [7.874015808105469, 2.922822952270508], "min" : [-6.854990005493164, -0.5416479110717773], "name" : "TEXCOORD_0"}, {"bufferView" : 0, "byteOffset" : 6708, "componentType" : 5123, "count" : 210, "type" : "SCALAR", "max" : [199], "min" : [0]}, {"bufferView" : 12, "byteOffset" : 0, "componentType" : 5126, "count" : 200, "type" : "VEC3", "max" : [0.30000001192092896, 0.06024445220828056, 0.06024445220828056], "min" : [0.25, -0.06024445220828056, -0.06024445220828056], "name" : "POSITION"}, {"bufferView" : 12, "byteOffset" : 12, "componentType" : 5126, "count" : 200, "type" : "VEC3", "max" : [1.0000044107437134, 0.9636843204498291, 0.9636843204498291], "min" : [0.2670605182647705, -0.9636843204498291, -0.9636843204498291], "name" : "NORMAL"}, {"bufferView" : 12, "byteOffset" : 24, "componentType" : 5126, "count" : 200, "type" : "VEC2", "max" : [10.910934448242188, 10.875612258911133], "min" : [-10.910934448242188, -8.875612258911133], "name" : "TEXCOORD_0"}], "asset" : {"generator" : "Aspose.3D 22.1", "version" : "2.0"}, "buffers" : [{"uri" : "data:application/octet-stream;base64,", "byteLength" : 121228}], "bufferViews" : [{"buffer" : 0, "byteOffset" : 0, "byteLength" : 7128, "target" : 34963}, {"buffer" : 0, "byteOffset" : 7132, "byteLength" : 768, "byteStride" : 32, "target" : 34962}, {"buffer" : 0, "byteOffset" : 7904, "byteLength" : 7680, "byteStride" : 32, "target" : 34962}, {"buffer" : 0, "byteOffset" : 15588, "byteLength" : 57024, "byteStride" : 32, "target" : 34962}, {"buffer" : 0, "byteOffset" : 72616, "byteLength" : 7872, "byteStride" : 32, "target" : 34962}, {"buffer" : 0, "byteOffset" : 80492, "byteLength" : 576, "byteStride" : 32, "target" : 34962}, {"buffer" : 0, "byteOffset" : 81072, "byteLength" : 384, "byteStride" : 32, "target" : 34962}, {"buffer" : 0, "byteOffset" : 81460, "byteLength" : 1344, "byteStride" : 32, "target" : 34962}, {"buffer" : 0, "byteOffset" : 82808, "byteLength" : 1728, "byteStride" : 32, "target" : 34962}, {"buffer" : 0, "byteOffset" : 84540, "byteLength" : 192, "byteStride" : 32, "target" : 34962}, {"buffer" : 0, "byteOffset" : 84736, "byteLength" : 15936, "byteStride" : 32, "target" : 34962}, {"buffer" : 0, "byteOffset" : 100676, "byteLength" : 13824, "byteStride" : 32, "target" : 34962}, {"buffer" : 0, "byteOffset" : 114504, "byteLength" : 6720, "byteStride" : 32, "target" : 34962}], "materials" : [{"name" : "lightBack", "pbrMetallicRoughness" : {"baseColorFactor" : [1, 0.349019617, 0.227450982, 1], "metallicFactor" : 1, "roughnessFactor" : 1}, "emissiveFactor" : [0, 0, 0], "alphaMode" : "OPAQUE", "doubleSided" : false}, {"name" : "paintGreen", "pbrMetallicRoughness" : {"baseColorFactor" : [0.239215687, 0.847058833, 0.5058824, 1], "metallicFactor" : 1, "roughnessFactor" : 1}, "emissiveFactor" : [0, 0, 0], "alphaMode" : "OPAQUE", "doubleSided" : false}, {"name" : "plastic", "pbrMetallicRoughness" : {"baseColorFactor" : [0.3764706, 0.3764706, 0.3764706, 1], "metallicFactor" : 1, "roughnessFactor" : 1}, "emissiveFactor" : [0, 0, 0], "alphaMode" : "OPAQUE", "doubleSided" : false}, {"name" : "paintWhite", "pbrMetallicRoughness" : {"baseColorFactor" : [0.8980392, 0.905882359, 0.968627453, 1], "metallicFactor" : 1, "roughnessFactor" : 1}, "emissiveFactor" : [0, 0, 0], "alphaMode" : "OPAQUE", "doubleSided" : false}, {"name" : "_defaultMat", "pbrMetallicRoughness" : {"baseColorFactor" : [1, 1, 1, 1], "metallicFactor" : 1, "roughnessFactor" : 1}, "emissiveFactor" : [0, 0, 0], "alphaMode" : "OPAQUE", "doubleSided" : false}, {"name" : "lightFront", "pbrMetallicRoughness" : {"baseColorFactor" : [1, 0.9762833, 0.9292453, 1], "metallicFactor" : 1, "roughnessFactor" : 1}, "emissiveFactor" : [0, 0, 0], "alphaMode" : "OPAQUE", "doubleSided" : false}, {"name" : "window", "pbrMetallicRoughness" : {"baseColorFactor" : [0.9372549, 0.9372549, 0.9372549, 1], "metallicFactor" : 1, "roughnessFactor" : 1}, "emissiveFactor" : [0, 0, 0], "alphaMode" : "OPAQUE", "doubleSided" : false}, {"name" : "carTire", "pbrMetallicRoughness" : {"baseColorFactor" : [0.239215687, 0.239215687, 0.239215687, 1], "metallicFactor" : 1, "roughnessFactor" : 1}, "emissiveFactor" : [0, 0, 0], "alphaMode" : "OPAQUE", "doubleSided" : false}, {"name" : "_defaultMat", "pbrMetallicRoughness" : {"baseColorFactor" : [1, 1, 1, 1], "metallicFactor" : 1, "roughnessFactor" : 1}, "emissiveFactor" : [0, 0, 0], "alphaMode" : "OPAQUE", "doubleSided" : false}, {"name" : "carTire", "pbrMetallicRoughness" : {"baseColorFactor" : [0.239215687, 0.239215687, 0.239215687, 1], "metallicFactor" : 1, "roughnessFactor" : 1}, "emissiveFactor" : [0, 0, 0], "alphaMode" : "OPAQUE", "doubleSided" : false}, {"name" : "_defaultMat", "pbrMetallicRoughness" : {"baseColorFactor" : [1, 1, 1, 1], "metallicFactor" : 1, "roughnessFactor" : 1}, "emissiveFactor" : [0, 0, 0], "alphaMode" : "OPAQUE", "doubleSided" : false}, {"name" : "plastic", "pbrMetallicRoughness" : {"baseColorFactor" : [0.3764706, 0.3764706, 0.3764706, 1], "metallicFactor" : 1, "roughnessFactor" : 1}, "emissiveFactor" : [0, 0, 0], "alphaMode" : "OPAQUE", "doubleSided" : false}], "meshes" : [{"primitives" : [{"attributes" : {"POSITION" : 1, "NORMAL" : 2, "TEXCOORD_0" : 3}, "indices" : 0, "material" : 0, "mode" : 4}, {"attributes" : {"POSITION" : 5, "NORMAL" : 6, "TEXCOORD_0" : 7}, "indices" : 4, "material" : 1, "mode" : 4}, {"attributes" : {"POSITION" : 9, "NORMAL" : 10, "TEXCOORD_0" : 11}, "indices" : 8, "material" : 2, "mode" : 4}, {"attributes" : {"POSITION" : 13, "NORMAL" : 14, "TEXCOORD_0" : 15}, "indices" : 12, "material" : 3, "mode" : 4}, {"attributes" : {"POSITION" : 17, "NORMAL" : 18, "TEXCOORD_0" : 19}, "indices" : 16, "material" : 4, "mode" : 4}, {"attributes" : {"POSITION" : 21, "NORMAL" : 22, "TEXCOORD_0" : 23}, "indices" : 20, "material" : 5, "mode" : 4}, {"attributes" : {"POSITION" : 25, "NORMAL" : 26, "TEXCOORD_0" : 27}, "indices" : 24, "material" : 6, "mode" : 4}]}, {"primitives" : [{"attributes" : {"POSITION" : 29, "NORMAL" : 30, "TEXCOORD_0" : 31}, "indices" : 28, "material" : 7, "mode" : 4}, {"attributes" : {"POSITION" : 33, "NORMAL" : 34, "TEXCOORD_0" : 35}, "indices" : 32, "material" : 8, "mode" : 4}]}, {"primitives" : [{"attributes" : {"POSITION" : 37, "NORMAL" : 38, "TEXCOORD_0" : 39}, "indices" : 36, "material" : 9, "mode" : 4}, {"attributes" : {"POSITION" : 41, "NORMAL" : 42, "TEXCOORD_0" : 43}, "indices" : 40, "material" : 10, "mode" : 4}, {"attributes" : {"POSITION" : 45, "NORMAL" : 46, "TEXCOORD_0" : 47}, "indices" : 44, "material" : 11, "mode" : 4}]}, {"primitives" : [{"attributes" : {"POSITION" : 37, "NORMAL" : 38, "TEXCOORD_0" : 39}, "indices" : 36, "material" : 9, "mode" : 4}, {"attributes" : {"POSITION" : 41, "NORMAL" : 42, "TEXCOORD_0" : 43}, "indices" : 40, "material" : 10, "mode" : 4}, {"attributes" : {"POSITION" : 45, "NORMAL" : 46, "TEXCOORD_0" : 47}, "indices" : 44, "material" : 11, "mode" : 4}]}, {"primitives" : [{"attributes" : {"POSITION" : 37, "NORMAL" : 38, "TEXCOORD_0" : 39}, "indices" : 36, "material" : 9, "mode" : 4}, {"attributes" : {"POSITION" : 41, "NORMAL" : 42, "TEXCOORD_0" : 43}, "indices" : 40, "material" : 10, "mode" : 4}, {"attributes" : {"POSITION" : 45, "NORMAL" : 46, "TEXCOORD_0" : 47}, "indices" : 44, "material" : 11, "mode" : 4}]}, {"primitives" : [{"attributes" : {"POSITION" : 37, "NORMAL" : 38, "TEXCOORD_0" : 39}, "indices" : 36, "material" : 9, "mode" : 4}, {"attributes" : {"POSITION" : 41, "NORMAL" : 42, "TEXCOORD_0" : 43}, "indices" : 40, "material" : 10, "mode" : 4}, {"attributes" : {"POSITION" : 45, "NORMAL" : 46, "TEXCOORD_0" : 47}, "indices" : 44, "material" : 11, "mode" : 4}]}], "nodes" : [{"matrix" : [1, 0, 0, 0, 0, 1, 0, 0, 0, 0, 1, 0, 0, 0.2, 0, 1], "mesh" : 0, "name" : "body"}, {"matrix" : [1, 0, 0, 0, 0, 1, 0, 0, 0, 0, 1, 0, 0, 1.5, 1.475, 1], "mesh" : 1, "name" : "door"}, {"matrix" : [-1, 0, 0, 0, 0, 1, 0, 0, 0, 0, 1, 0, -0.35, 0.3, 0.61, 1], "mesh" : 2, "name" : "wheel_backLeft"}, {"matrix" : [1, 0, 8.742278E-08, 0, 0, 1, 0, 0, 8.742278E-08, 0, -1, 0, 0.35, 0.3, 0.61, 1], "mesh" : 3, "name" : "wheel_backRight"}, {"matrix" : [-1, 0, 0, 0, 0, 1, 0, 0, 0, 0, 1, 0, -0.35, 0.3, -1.01, 1], "mesh" : 4, "name" : "wheel_frontLeft"}, {"matrix" : [1, 0, 8.742278E-08, 0, 0, 1, 0, 0, 8.742278E-08, 0, -1, 0, 0.35, 0.3, -1.01, 1], "mesh" : 5, "name" : "wheel_frontRight"}, {"children" : [0, 1, 2, 3, 4, 5], "name" : "delivery"}], "scene" : 0, "scenes" : [{"nodes" : [6]}]}