{"accessors" : [{"bufferView" : 0, "byteOffset" : 0, "componentType" : 5123, "count" : 1956, "type" : "SCALAR", "max" : [1813], "min" : [0]}, {"bufferView" : 1, "byteOffset" : 0, "componentType" : 5126, "count" : 1814, "type" : "VEC3", "max" : [0.6499999761581421, 0.4899999797344208, 1.4499999284744263], "min" : [-0.6499999761581421, 0, -1.25], "name" : "POSITION"}, {"bufferView" : 1, "byteOffset" : 12, "componentType" : 5126, "count" : 1814, "type" : "VEC3", "max" : [1.0000044107437134, 1.0000044107437134, 1.0000044107437134], "min" : [-1.0000044107437134, -1.0000044107437134, -1.0000044107437134], "name" : "NORMAL"}, {"bufferView" : 1, "byteOffset" : 24, "componentType" : 5126, "count" : 1814, "type" : "VEC2", "max" : [57.086612701416016, 48.21259689331055], "min" : [-57.086612701416016, -58.086612701416016], "name" : "TEXCOORD_0"}, {"bufferView" : 0, "byteOffset" : 3912, "componentType" : 5123, "count" : 426, "type" : "SCALAR", "max" : [390], "min" : [0]}, {"bufferView" : 2, "byteOffset" : 0, "componentType" : 5126, "count" : 391, "type" : "VEC3", "max" : [0.75, 1.100000023841858, 1.4499999284744263], "min" : [-0.75, 0.30000001192092896, -1.149999976158142], "name" : "POSITION"}, {"bufferView" : 2, "byteOffset" : 12, "componentType" : 5126, "count" : 391, "type" : "VEC3", "max" : [1.0000044107437134, 1.0000044107437134, 1.0000044107437134], "min" : [-1.0000044107437134, -1.0000044107437134, -1.0000044107437134], "name" : "NORMAL"}, {"bufferView" : 2, "byteOffset" : 24, "componentType" : 5126, "count" : 391, "type" : "VEC2", "max" : [57.086612701416016, 44.27558898925781], "min" : [-57.086612701416016, -53.11747741699219], "name" : "TEXCOORD_0"}, {"bufferView" : 0, "byteOffset" : 4764, "componentType" : 5123, "count" : 12, "type" : "SCALAR", "max" : [11], "min" : [0]}, {"bufferView" : 3, "byteOffset" : 0, "componentType" : 5126, "count" : 12, "type" : "VEC3", "max" : [0.550000011920929, 0.6000000238418579, -1.149999976158142], "min" : [-0.550000011920929, 0.5, -1.149999976158142], "name" : "POSITION"}, {"bufferView" : 3, "byteOffset" : 12, "componentType" : 5126, "count" : 12, "type" : "VEC3", "max" : [0, 0, -1.0000044107437134], "min" : [0, 0, -1.0000044107437134], "name" : "NORMAL"}, {"bufferView" : 3, "byteOffset" : 24, "componentType" : 5126, "count" : 12, "type" : "VEC2", "max" : [21.65354347229004, 22.622047424316406], "min" : [-21.65354347229004, 18.685039520263672], "name" : "TEXCOORD_0"}, {"bufferView" : 0, "byteOffset" : 4788, "componentType" : 5123, "count" : 54, "type" : "SCALAR", "max" : [53], "min" : [0]}, {"bufferView" : 4, "byteOffset" : 0, "componentType" : 5126, "count" : 54, "type" : "VEC3", "max" : [0.75, 1.2999999523162842, 0.550000011920929], "min" : [-0.75, 0.30000001192092896, -0.32290220260620117], "name" : "POSITION"}, {"bufferView" : 4, "byteOffset" : 12, "componentType" : 5126, "count" : 54, "type" : "VEC3", "max" : [1.0000044107437134, 1.0000044107437134, 1.0000044107437134], "min" : [-1.0000044107437134, 0, -1.0000044107437134], "name" : "NORMAL"}, {"bufferView" : 4, "byteOffset" : 24, "componentType" : 5126, "count" : 54, "type" : "VEC2", "max" : [25.590551376342773, 25.191001892089844], "min" : [-25.590551376342773, -42.42336654663086], "name" : "TEXCOORD_0"}, {"bufferView" : 0, "byteOffset" : 4896, "componentType" : 5123, "count" : 36, "type" : "SCALAR", "max" : [35], "min" : [0]}, {"bufferView" : 5, "byteOffset" : 0, "componentType" : 5126, "count" : 36, "type" : "VEC3", "max" : [0.550000011920929, 1.0219130516052246, 0.9128609299659729], "min" : [-0.550000011920929, 0.6000000238418579, -0.550000011920929], "name" : "POSITION"}, {"bufferView" : 5, "byteOffset" : 12, "componentType" : 5126, "count" : 36, "type" : "VEC3", "max" : [0.9805850386619568, 0.624697744846344, 0.9284807443618774], "min" : [-0.9805850386619568, 0.19611699879169464, -0.7808722257614136], "name" : "NORMAL"}, {"bufferView" : 5, "byteOffset" : 24, "componentType" : 5126, "count" : 36, "type" : "VEC2", "max" : [17.668811798095703, 34.05458450317383], "min" : [-17.668811798095703, 3.918858528137207], "name" : "TEXCOORD_0"}, {"bufferView" : 0, "byteOffset" : 4968, "componentType" : 5123, "count" : 12, "type" : "SCALAR", "max" : [11], "min" : [0]}, {"bufferView" : 6, "byteOffset" : 0, "componentType" : 5126, "count" : 12, "type" : "VEC3", "max" : [0.550000011920929, 0.5, 1.4499999284744263], "min" : [-0.550000011920929, 0.4000000059604645, 1.4499999284744263], "name" : "POSITION"}, {"bufferView" : 6, "byteOffset" : 12, "componentType" : 5126, "count" : 12, "type" : "VEC3", "max" : [0, 0, 1.0000044107437134], "min" : [0, 0, 1.0000044107437134], "name" : "NORMAL"}, {"bufferView" : 6, "byteOffset" : 24, "componentType" : 5126, "count" : 12, "type" : "VEC2", "max" : [21.65354347229004, 18.685039520263672], "min" : [-21.65354347229004, 14.748031616210938], "name" : "TEXCOORD_0"}, {"bufferView" : 0, "byteOffset" : 4992, "componentType" : 5123, "count" : 498, "type" : "SCALAR", "max" : [464], "min" : [0]}, {"bufferView" : 7, "byteOffset" : 0, "componentType" : 5126, "count" : 465, "type" : "VEC3", "max" : [0.30000001192092896, 0.30000001192092896, 0.30000001192092896], "min" : [-4.51194631754889E-17, -0.30000001192092896, -0.30000001192092896], "name" : "POSITION"}, {"bufferView" : 7, "byteOffset" : 12, "componentType" : 5126, "count" : 465, "type" : "VEC3", "max" : [1.0000044107437134, 1.0000044107437134, 1.0000044107437134], "min" : [-1.0000044107437134, -1.0000044107437134, -1.0000044107437134], "name" : "NORMAL"}, {"bufferView" : 7, "byteOffset" : 24, "componentType" : 5126, "count" : 465, "type" : "VEC2", "max" : [11.811023712158203, 10.811023712158203], "min" : [-11.811023712158203, -12.811023712158203], "name" : "TEXCOORD_0"}, {"bufferView" : 0, "byteOffset" : 5988, "componentType" : 5123, "count" : 354, "type" : "SCALAR", "max" : [321], "min" : [0]}, {"bufferView" : 8, "byteOffset" : 0, "componentType" : 5126, "count" : 322, "type" : "VEC3", "max" : [0.30000001192092896, 0.1648801863193512, 0.1648801863193512], "min" : [0.20000000298023224, -0.1648801863193512, -0.1648801863193512], "name" : "POSITION"}, {"bufferView" : 8, "byteOffset" : 12, "componentType" : 5126, "count" : 322, "type" : "VEC3", "max" : [1.0000044107437134, 0.9645015001296997, 0.9645015001296997], "min" : [0.2640936076641083, -0.9645015001296997, -0.9645015001296997], "name" : "NORMAL"}, {"bufferView" : 8, "byteOffset" : 24, "componentType" : 5126, "count" : 322, "type" : "VEC2", "max" : [12.530474662780762, 10.438353538513184], "min" : [-12.530474662780762, -12.438353538513184], "name" : "TEXCOORD_0"}], "asset" : {"generator" : "Aspose.3D 22.1", "version" : "2.0"}, "buffers" : [{"uri" : "data:application/octet-stream;base64,", "byteLength" : 113868}], "bufferViews" : [{"buffer" : 0, "byteOffset" : 0, "byteLength" : 6696, "target" : 34963}, {"buffer" : 0, "byteOffset" : 6700, "byteLength" : 62592, "byteStride" : 32, "target" : 34962}, {"buffer" : 0, "byteOffset" : 69296, "byteLength" : 13632, "byteStride" : 32, "target" : 34962}, {"buffer" : 0, "byteOffset" : 82932, "byteLength" : 384, "byteStride" : 32, "target" : 34962}, {"buffer" : 0, "byteOffset" : 83320, "byteLength" : 1728, "byteStride" : 32, "target" : 34962}, {"buffer" : 0, "byteOffset" : 85052, "byteLength" : 1152, "byteStride" : 32, "target" : 34962}, {"buffer" : 0, "byteOffset" : 86208, "byteLength" : 384, "byteStride" : 32, "target" : 34962}, {"buffer" : 0, "byteOffset" : 86596, "byteLength" : 15936, "byteStride" : 32, "target" : 34962}, {"buffer" : 0, "byteOffset" : 102536, "byteLength" : 11328, "byteStride" : 32, "target" : 34962}], "materials" : [{"name" : "plastic", "pbrMetallicRoughness" : {"baseColorFactor" : [0.3764706, 0.3764706, 0.3764706, 1], "metallicFactor" : 1, "roughnessFactor" : 1}, "emissiveFactor" : [0, 0, 0], "alphaMode" : "OPAQUE", "doubleSided" : false}, {"name" : "paintYellow", "pbrMetallicRoughness" : {"baseColorFactor" : [0.9764706, 0.768627465, 0.274509817, 1], "metallicFactor" : 1, "roughnessFactor" : 1}, "emissiveFactor" : [0, 0, 0], "alphaMode" : "OPAQUE", "doubleSided" : false}, {"name" : "lightFront", "pbrMetallicRoughness" : {"baseColorFactor" : [1, 0.9762833, 0.9292453, 1], "metallicFactor" : 1, "roughnessFactor" : 1}, "emissiveFactor" : [0, 0, 0], "alphaMode" : "OPAQUE", "doubleSided" : false}, {"name" : "_defaultMat", "pbrMetallicRoughness" : {"baseColorFactor" : [1, 1, 1, 1], "metallicFactor" : 1, "roughnessFactor" : 1}, "emissiveFactor" : [0, 0, 0], "alphaMode" : "OPAQUE", "doubleSided" : false}, {"name" : "window", "pbrMetallicRoughness" : {"baseColorFactor" : [0.9372549, 0.9372549, 0.9372549, 1], "metallicFactor" : 1, "roughnessFactor" : 1}, "emissiveFactor" : [0, 0, 0], "alphaMode" : "OPAQUE", "doubleSided" : false}, {"name" : "lightBack", "pbrMetallicRoughness" : {"baseColorFactor" : [1, 0.349019617, 0.227450982, 1], "metallicFactor" : 1, "roughnessFactor" : 1}, "emissiveFactor" : [0, 0, 0], "alphaMode" : "OPAQUE", "doubleSided" : false}, {"name" : "carTire", "pbrMetallicRoughness" : {"baseColorFactor" : [0.239215687, 0.239215687, 0.239215687, 1], "metallicFactor" : 1, "roughnessFactor" : 1}, "emissiveFactor" : [0, 0, 0], "alphaMode" : "OPAQUE", "doubleSided" : false}, {"name" : "plastic", "pbrMetallicRoughness" : {"baseColorFactor" : [0.3764706, 0.3764706, 0.3764706, 1], "metallicFactor" : 1, "roughnessFactor" : 1}, "emissiveFactor" : [0, 0, 0], "alphaMode" : "OPAQUE", "doubleSided" : false}], "meshes" : [{"primitives" : [{"attributes" : {"POSITION" : 1, "NORMAL" : 2, "TEXCOORD_0" : 3}, "indices" : 0, "material" : 0, "mode" : 4}, {"attributes" : {"POSITION" : 5, "NORMAL" : 6, "TEXCOORD_0" : 7}, "indices" : 4, "material" : 1, "mode" : 4}, {"attributes" : {"POSITION" : 9, "NORMAL" : 10, "TEXCOORD_0" : 11}, "indices" : 8, "material" : 2, "mode" : 4}, {"attributes" : {"POSITION" : 13, "NORMAL" : 14, "TEXCOORD_0" : 15}, "indices" : 12, "material" : 3, "mode" : 4}, {"attributes" : {"POSITION" : 17, "NORMAL" : 18, "TEXCOORD_0" : 19}, "indices" : 16, "material" : 4, "mode" : 4}, {"attributes" : {"POSITION" : 21, "NORMAL" : 22, "TEXCOORD_0" : 23}, "indices" : 20, "material" : 5, "mode" : 4}]}, {"primitives" : [{"attributes" : {"POSITION" : 25, "NORMAL" : 26, "TEXCOORD_0" : 27}, "indices" : 24, "material" : 6, "mode" : 4}, {"attributes" : {"POSITION" : 29, "NORMAL" : 30, "TEXCOORD_0" : 31}, "indices" : 28, "material" : 7, "mode" : 4}]}, {"primitives" : [{"attributes" : {"POSITION" : 25, "NORMAL" : 26, "TEXCOORD_0" : 27}, "indices" : 24, "material" : 6, "mode" : 4}, {"attributes" : {"POSITION" : 29, "NORMAL" : 30, "TEXCOORD_0" : 31}, "indices" : 28, "material" : 7, "mode" : 4}]}, {"primitives" : [{"attributes" : {"POSITION" : 25, "NORMAL" : 26, "TEXCOORD_0" : 27}, "indices" : 24, "material" : 6, "mode" : 4}, {"attributes" : {"POSITION" : 29, "NORMAL" : 30, "TEXCOORD_0" : 31}, "indices" : 28, "material" : 7, "mode" : 4}]}, {"primitives" : [{"attributes" : {"POSITION" : 25, "NORMAL" : 26, "TEXCOORD_0" : 27}, "indices" : 24, "material" : 6, "mode" : 4}, {"attributes" : {"POSITION" : 29, "NORMAL" : 30, "TEXCOORD_0" : 31}, "indices" : 28, "material" : 7, "mode" : 4}]}], "nodes" : [{"matrix" : [1, 0, 0, 0, 0, 1, 0, 0, 0, 0, 1, 0, 0, 0.2, -0.1, 1], "mesh" : 0, "name" : "body"}, {"matrix" : [-1, 0, -8.742278E-08, 0, 0, 1, 0, 0, 8.742278E-08, 0, -1, 0, -0.35, 0.3, 0.76, 1], "mesh" : 1, "name" : "wheel_backLeft"}, {"matrix" : [1, 0, 0, 0, 0, 1, 0, 0, 0, 0, 1, 0, 0.35, 0.3, 0.76, 1], "mesh" : 2, "name" : "wheel_backRight"}, {"matrix" : [-1, 0, -8.742278E-08, 0, 0, 1, 0, 0, 8.742278E-08, 0, -1, 0, -0.35, 0.3, -0.76, 1], "mesh" : 3, "name" : "wheel_frontLeft"}, {"matrix" : [1, 0, 0, 0, 0, 1, 0, 0, 0, 0, 1, 0, 0.35, 0.3, -0.76, 1], "mesh" : 4, "name" : "wheel_frontRight"}, {"children" : [0, 1, 2, 3, 4], "name" : "taxi"}], "scene" : 0, "scenes" : [{"nodes" : [5]}]}