{"accessors" : [{"bufferView" : 0, "byteOffset" : 0, "componentType" : 5123, "count" : 342, "type" : "SCALAR", "max" : [325], "min" : [0]}, {"bufferView" : 1, "byteOffset" : 0, "componentType" : 5126, "count" : 326, "type" : "VEC3", "max" : [0.550000011920929, 1.149999976158142, 0.8066362142562866], "min" : [-0.550000011920929, 0, -0.8066362142562866], "name" : "POSITION"}, {"bufferView" : 1, "byteOffset" : 12, "componentType" : 5126, "count" : 326, "type" : "VEC3", "max" : [1.0000044107437134, 1.0000044107437134, 1.0000044107437134], "min" : [-1.0000044107437134, -1.0000044107437134, -1.0000044107437134], "name" : "NORMAL"}, {"bufferView" : 1, "byteOffset" : 24, "componentType" : 5126, "count" : 326, "type" : "VEC2", "max" : [31.75733184814453, 32.75733184814453], "min" : [-31.75733184814453, -30.75733184814453], "name" : "TEXCOORD_0"}, {"bufferView" : 0, "byteOffset" : 684, "componentType" : 5123, "count" : 36, "type" : "SCALAR", "max" : [34], "min" : [0]}, {"bufferView" : 2, "byteOffset" : 0, "componentType" : 5126, "count" : 35, "type" : "VEC3", "max" : [0.44999998807907104, 1.0543944835662842, 0.7066361904144287], "min" : [-0.44999998807907104, 0.550000011920929, -0.193363755941391], "name" : "POSITION"}, {"bufferView" : 2, "byteOffset" : 12, "componentType" : 5126, "count" : 35, "type" : "VEC3", "max" : [0.9939183592796326, 0.29319122433662415, 1.0000044107437134], "min" : [-0.9939183592796326, 0, -0.9560584425926208], "name" : "NORMAL"}, {"bufferView" : 2, "byteOffset" : 24, "componentType" : 5126, "count" : 35, "type" : "VEC2", "max" : [23.883316040039062, -17.469980239868164], "min" : [-23.883316040039062, -40.33858108520508], "name" : "TEXCOORD_0"}, {"bufferView" : 0, "byteOffset" : 756, "componentType" : 5123, "count" : 744, "type" : "SCALAR", "max" : [689], "min" : [0]}, {"bufferView" : 3, "byteOffset" : 0, "componentType" : 5126, "count" : 690, "type" : "VEC3", "max" : [0.44999998807907104, 1.149999976158142, 0.8066362142562866], "min" : [-0.44999998807907104, 0, -0.8066362142562866], "name" : "POSITION"}, {"bufferView" : 3, "byteOffset" : 12, "componentType" : 5126, "count" : 690, "type" : "VEC3", "max" : [1.0000044107437134, 1.0000044107437134, 1.0000044107437134], "min" : [-1.0000044107437134, -1.0000044107437134, -1.0000044107437134], "name" : "NORMAL"}, {"bufferView" : 3, "byteOffset" : 24, "componentType" : 5126, "count" : 690, "type" : "VEC2", "max" : [31.75733184814453, 32.75733184814453], "min" : [-31.75733184814453, -44.27558898925781], "name" : "TEXCOORD_0"}, {"bufferView" : 0, "byteOffset" : 2244, "componentType" : 5123, "count" : 12, "type" : "SCALAR", "max" : [11], "min" : [0]}, {"bufferView" : 4, "byteOffset" : 0, "componentType" : 5126, "count" : 12, "type" : "VEC3", "max" : [0.44999998807907104, 0.44999998807907104, -0.8066362142562866], "min" : [-0.44999998807907104, 0.3499999940395355, -0.8066362142562866], "name" : "POSITION"}, {"bufferView" : 4, "byteOffset" : 12, "componentType" : 5126, "count" : 12, "type" : "VEC3", "max" : [0, 0, -1.0000044107437134], "min" : [0, 0, -1.0000044107437134], "name" : "NORMAL"}, {"bufferView" : 4, "byteOffset" : 24, "componentType" : 5126, "count" : 12, "type" : "VEC2", "max" : [17.716535568237305, -12.77952766418457], "min" : [-17.716535568237305, -16.716535568237305], "name" : "TEXCOORD_0"}, {"bufferView" : 0, "byteOffset" : 2268, "componentType" : 5123, "count" : 18, "type" : "SCALAR", "max" : [17], "min" : [0]}, {"bufferView" : 5, "byteOffset" : 0, "componentType" : 5126, "count" : 18, "type" : "VEC3", "max" : [0.550000011920929, 0.6499999761581421, -0.09336374700069427], "min" : [-0.550000011920929, 0.44999998807907104, -0.09336374700069427], "name" : "POSITION"}, {"bufferView" : 5, "byteOffset" : 12, "componentType" : 5126, "count" : 18, "type" : "VEC3", "max" : [0, 0, 1.0000044107437134], "min" : [0, 0, 1.0000044107437134], "name" : "NORMAL"}, {"bufferView" : 5, "byteOffset" : 24, "componentType" : 5126, "count" : 18, "type" : "VEC2", "max" : [3.9370079040527344, 1], "min" : [-31.75733184814453, -2.9370079040527344], "name" : "TEXCOORD_0"}, {"bufferView" : 0, "byteOffset" : 2304, "componentType" : 5123, "count" : 1020, "type" : "SCALAR", "max" : [948], "min" : [0]}, {"bufferView" : 6, "byteOffset" : 0, "componentType" : 5126, "count" : 949, "type" : "VEC3", "max" : [1.100000023841858, 0.6278102397918701, -0.20063063502311707], "min" : [-0.20000000298023224, -4.51194631754889E-17, -1.8201708793640137], "name" : "POSITION"}, {"bufferView" : 6, "byteOffset" : 12, "componentType" : 5126, "count" : 949, "type" : "VEC3", "max" : [1.0000044107437134, 1.0000044107437134, 1.0000044107437134], "min" : [-1.0000044107437134, -1.0000044107437134, -1.0000044107437134], "name" : "NORMAL"}, {"bufferView" : 6, "byteOffset" : 24, "componentType" : 5126, "count" : 949, "type" : "VEC2", "max" : [71.66027069091797, 64.45787048339844], "min" : [-71.66027069091797, -62.3237190246582], "name" : "TEXCOORD_0"}, {"bufferView" : 0, "byteOffset" : 4344, "componentType" : 5123, "count" : 498, "type" : "SCALAR", "max" : [463], "min" : [0]}, {"bufferView" : 7, "byteOffset" : 0, "componentType" : 5126, "count" : 464, "type" : "VEC3", "max" : [0.30000001192092896, 0.30000001192092896, 0.30000001192092896], "min" : [-1.4438228216156449E-15, -0.30000001192092896, -0.30000001192092896], "name" : "POSITION"}, {"bufferView" : 7, "byteOffset" : 12, "componentType" : 5126, "count" : 464, "type" : "VEC3", "max" : [1.0000044107437134, 1.0000044107437134, 1.0000044107437134], "min" : [-1.0000044107437134, -1.0000044107437134, -1.0000044107437134], "name" : "NORMAL"}, {"bufferView" : 7, "byteOffset" : 24, "componentType" : 5126, "count" : 464, "type" : "VEC2", "max" : [11.811023712158203, 12.811023712158203], "min" : [-11.811023712158203, -10.811023712158203], "name" : "TEXCOORD_0"}, {"bufferView" : 0, "byteOffset" : 5340, "componentType" : 5123, "count" : 432, "type" : "SCALAR", "max" : [385], "min" : [0]}, {"bufferView" : 8, "byteOffset" : 0, "componentType" : 5126, "count" : 386, "type" : "VEC3", "max" : [0.30000001192092896, 0.2006262093782425, 0.2006262093782425], "min" : [0.25, -0.2006262093782425, -0.2006262093782425], "name" : "POSITION"}, {"bufferView" : 8, "byteOffset" : 12, "componentType" : 5126, "count" : 386, "type" : "VEC3", "max" : [1.0000044107437134, 0.9643603563308716, 0.9643603563308716], "min" : [0.26460886001586914, -0.9643603563308716, -0.9643603563308716], "name" : "NORMAL"}, {"bufferView" : 8, "byteOffset" : 24, "componentType" : 5126, "count" : 386, "type" : "VEC2", "max" : [12.867920875549316, 12.813530921936035], "min" : [-12.867920875549316, -10.813530921936035], "name" : "TEXCOORD_0"}, {"bufferView" : 0, "byteOffset" : 6204, "componentType" : 5123, "count" : 210, "type" : "SCALAR", "max" : [199], "min" : [0]}, {"bufferView" : 9, "byteOffset" : 0, "componentType" : 5126, "count" : 200, "type" : "VEC3", "max" : [0.30000001192092896, 0.078317791223526, 0.078317791223526], "min" : [0.25, -0.078317791223526, -0.078317791223526], "name" : "POSITION"}, {"bufferView" : 9, "byteOffset" : 12, "componentType" : 5126, "count" : 200, "type" : "VEC3", "max" : [1.0000044107437134, 0.9408130049705505, 0.9408130049705505], "min" : [0.33893901109695435, -0.9408130049705505, -0.9408130049705505], "name" : "NORMAL"}, {"bufferView" : 9, "byteOffset" : 24, "componentType" : 5126, "count" : 200, "type" : "VEC2", "max" : [10.334630012512207, 10.733353614807129], "min" : [-10.334630012512207, -8.733353614807129], "name" : "TEXCOORD_0"}, {"bufferView" : 0, "byteOffset" : 6624, "componentType" : 5123, "count" : 498, "type" : "SCALAR", "max" : [464], "min" : [0]}, {"bufferView" : 10, "byteOffset" : 0, "componentType" : 5126, "count" : 465, "type" : "VEC3", "max" : [0.30000001192092896, 0.30000001192092896, 0.30000001192092896], "min" : [0, -0.30000001192092896, -0.30000001192092896], "name" : "POSITION"}, {"bufferView" : 10, "byteOffset" : 12, "componentType" : 5126, "count" : 465, "type" : "VEC3", "max" : [1.0000044107437134, 1.0000044107437134, 1.0000044107437134], "min" : [-1.0000044107437134, -1.0000044107437134, -1.0000044107437134], "name" : "NORMAL"}, {"bufferView" : 10, "byteOffset" : 24, "componentType" : 5126, "count" : 465, "type" : "VEC2", "max" : [11.811023712158203, 10.811023712158203], "min" : [-11.811023712158203, -12.811023712158203], "name" : "TEXCOORD_0"}, {"bufferView" : 0, "byteOffset" : 7620, "componentType" : 5123, "count" : 354, "type" : "SCALAR", "max" : [321], "min" : [0]}, {"bufferView" : 11, "byteOffset" : 0, "componentType" : 5126, "count" : 322, "type" : "VEC3", "max" : [0.30000001192092896, 0.1648801863193512, 0.1648801863193512], "min" : [0.20000000298023224, -0.1648801863193512, -0.1648801863193512], "name" : "POSITION"}, {"bufferView" : 11, "byteOffset" : 12, "componentType" : 5126, "count" : 322, "type" : "VEC3", "max" : [1.0000044107437134, 0.9645015001296997, 0.9645015001296997], "min" : [0.2640936076641083, -0.9645015001296997, -0.9645015001296997], "name" : "NORMAL"}, {"bufferView" : 11, "byteOffset" : 24, "componentType" : 5126, "count" : 322, "type" : "VEC2", "max" : [12.530474662780762, 10.438353538513184], "min" : [-12.530474662780762, -12.438353538513184], "name" : "TEXCOORD_0"}], "asset" : {"generator" : "Aspose.3D 22.1", "version" : "2.0"}, "buffers" : [{"uri" : "data:application/octet-stream;base64,", "byteLength" : 141624}], "bufferViews" : [{"buffer" : 0, "byteOffset" : 0, "byteLength" : 8328, "target" : 34963}, {"buffer" : 0, "byteOffset" : 8332, "byteLength" : 10944, "byteStride" : 32, "target" : 34962}, {"buffer" : 0, "byteOffset" : 19280, "byteLength" : 1152, "byteStride" : 32, "target" : 34962}, {"buffer" : 0, "byteOffset" : 20436, "byteLength" : 23808, "byteStride" : 32, "target" : 34962}, {"buffer" : 0, "byteOffset" : 44248, "byteLength" : 384, "byteStride" : 32, "target" : 34962}, {"buffer" : 0, "byteOffset" : 44636, "byteLength" : 576, "byteStride" : 32, "target" : 34962}, {"buffer" : 0, "byteOffset" : 45216, "byteLength" : 32640, "byteStride" : 32, "target" : 34962}, {"buffer" : 0, "byteOffset" : 77860, "byteLength" : 15936, "byteStride" : 32, "target" : 34962}, {"buffer" : 0, "byteOffset" : 93800, "byteLength" : 13824, "byteStride" : 32, "target" : 34962}, {"buffer" : 0, "byteOffset" : 107628, "byteLength" : 6720, "byteStride" : 32, "target" : 34962}, {"buffer" : 0, "byteOffset" : 114352, "byteLength" : 15936, "byteStride" : 32, "target" : 34962}, {"buffer" : 0, "byteOffset" : 130292, "byteLength" : 11328, "byteStride" : 32, "target" : 34962}], "materials" : [{"name" : "paintBlue", "pbrMetallicRoughness" : {"baseColorFactor" : [0.4117647, 0.478431374, 0.847058833, 1], "metallicFactor" : 1, "roughnessFactor" : 1}, "emissiveFactor" : [0, 0, 0], "alphaMode" : "OPAQUE", "doubleSided" : false}, {"name" : "window", "pbrMetallicRoughness" : {"baseColorFactor" : [0.9372549, 0.9372549, 0.9372549, 1], "metallicFactor" : 1, "roughnessFactor" : 1}, "emissiveFactor" : [0, 0, 0], "alphaMode" : "OPAQUE", "doubleSided" : false}, {"name" : "plastic", "pbrMetallicRoughness" : {"baseColorFactor" : [0.3764706, 0.3764706, 0.3764706, 1], "metallicFactor" : 1, "roughnessFactor" : 1}, "emissiveFactor" : [0, 0, 0], "alphaMode" : "OPAQUE", "doubleSided" : false}, {"name" : "lightFront", "pbrMetallicRoughness" : {"baseColorFactor" : [1, 0.9762833, 0.9292453, 1], "metallicFactor" : 1, "roughnessFactor" : 1}, "emissiveFactor" : [0, 0, 0], "alphaMode" : "OPAQUE", "doubleSided" : false}, {"name" : "_defaultMat", "pbrMetallicRoughness" : {"baseColorFactor" : [1, 1, 1, 1], "metallicFactor" : 1, "roughnessFactor" : 1}, "emissiveFactor" : [0, 0, 0], "alphaMode" : "OPAQUE", "doubleSided" : false}, {"name" : "plastic", "pbrMetallicRoughness" : {"baseColorFactor" : [0.3764706, 0.3764706, 0.3764706, 1], "metallicFactor" : 1, "roughnessFactor" : 1}, "emissiveFactor" : [0, 0, 0], "alphaMode" : "OPAQUE", "doubleSided" : false}, {"name" : "carTire", "pbrMetallicRoughness" : {"baseColorFactor" : [0.239215687, 0.239215687, 0.239215687, 1], "metallicFactor" : 1, "roughnessFactor" : 1}, "emissiveFactor" : [0, 0, 0], "alphaMode" : "OPAQUE", "doubleSided" : false}, {"name" : "paintYellow", "pbrMetallicRoughness" : {"baseColorFactor" : [0.9764706, 0.768627465, 0.274509817, 1], "metallicFactor" : 1, "roughnessFactor" : 1}, "emissiveFactor" : [0, 0, 0], "alphaMode" : "OPAQUE", "doubleSided" : false}, {"name" : "plastic", "pbrMetallicRoughness" : {"baseColorFactor" : [0.3764706, 0.3764706, 0.3764706, 1], "metallicFactor" : 1, "roughnessFactor" : 1}, "emissiveFactor" : [0, 0, 0], "alphaMode" : "OPAQUE", "doubleSided" : false}, {"name" : "carTire", "pbrMetallicRoughness" : {"baseColorFactor" : [0.239215687, 0.239215687, 0.239215687, 1], "metallicFactor" : 1, "roughnessFactor" : 1}, "emissiveFactor" : [0, 0, 0], "alphaMode" : "OPAQUE", "doubleSided" : false}, {"name" : "paintYellow", "pbrMetallicRoughness" : {"baseColorFactor" : [0.9764706, 0.768627465, 0.274509817, 1], "metallicFactor" : 1, "roughnessFactor" : 1}, "emissiveFactor" : [0, 0, 0], "alphaMode" : "OPAQUE", "doubleSided" : false}], "meshes" : [{"primitives" : [{"attributes" : {"POSITION" : 1, "NORMAL" : 2, "TEXCOORD_0" : 3}, "indices" : 0, "material" : 0, "mode" : 4}, {"attributes" : {"POSITION" : 5, "NORMAL" : 6, "TEXCOORD_0" : 7}, "indices" : 4, "material" : 1, "mode" : 4}, {"attributes" : {"POSITION" : 9, "NORMAL" : 10, "TEXCOORD_0" : 11}, "indices" : 8, "material" : 2, "mode" : 4}, {"attributes" : {"POSITION" : 13, "NORMAL" : 14, "TEXCOORD_0" : 15}, "indices" : 12, "material" : 3, "mode" : 4}, {"attributes" : {"POSITION" : 17, "NORMAL" : 18, "TEXCOORD_0" : 19}, "indices" : 16, "material" : 4, "mode" : 4}]}, {"primitives" : [{"attributes" : {"POSITION" : 21, "NORMAL" : 22, "TEXCOORD_0" : 23}, "indices" : 20, "material" : 5, "mode" : 4}]}, {"primitives" : [{"attributes" : {"POSITION" : 25, "NORMAL" : 26, "TEXCOORD_0" : 27}, "indices" : 24, "material" : 6, "mode" : 4}, {"attributes" : {"POSITION" : 29, "NORMAL" : 30, "TEXCOORD_0" : 31}, "indices" : 28, "material" : 7, "mode" : 4}, {"attributes" : {"POSITION" : 33, "NORMAL" : 34, "TEXCOORD_0" : 35}, "indices" : 32, "material" : 8, "mode" : 4}]}, {"primitives" : [{"attributes" : {"POSITION" : 25, "NORMAL" : 26, "TEXCOORD_0" : 27}, "indices" : 24, "material" : 6, "mode" : 4}, {"attributes" : {"POSITION" : 29, "NORMAL" : 30, "TEXCOORD_0" : 31}, "indices" : 28, "material" : 7, "mode" : 4}, {"attributes" : {"POSITION" : 33, "NORMAL" : 34, "TEXCOORD_0" : 35}, "indices" : 32, "material" : 8, "mode" : 4}]}, {"primitives" : [{"attributes" : {"POSITION" : 37, "NORMAL" : 38, "TEXCOORD_0" : 39}, "indices" : 36, "material" : 9, "mode" : 4}, {"attributes" : {"POSITION" : 41, "NORMAL" : 42, "TEXCOORD_0" : 43}, "indices" : 40, "material" : 10, "mode" : 4}]}, {"primitives" : [{"attributes" : {"POSITION" : 37, "NORMAL" : 38, "TEXCOORD_0" : 39}, "indices" : 36, "material" : 9, "mode" : 4}, {"attributes" : {"POSITION" : 41, "NORMAL" : 42, "TEXCOORD_0" : 43}, "indices" : 40, "material" : 10, "mode" : 4}]}], "nodes" : [{"matrix" : [1.122, 0, 0, 0, 0, 1.122, 0, 0, 0, 0, 1.122, 0, -4.33146857E-15, 0.171725035, -0.04356632, 1], "mesh" : 0, "name" : "body"}, {"matrix" : [1.122, 0, 0, 0, 0, 1.122, 0, 0, 0, 0, 1.122, 0, -0.5049, 0.283925027, 1.17371976, 1], "mesh" : 1, "name" : "skirts"}, {"matrix" : [-1.4586, 0, 0, 0, 0, 1.4586, 0, 0, 0, 0, 1.4586, 0, -0.3927, 0.43757996, 0.400499642, 1], "mesh" : 2, "name" : "wheel_backLeft"}, {"matrix" : [1.4586, 0, 0, 0, 0, 1.4586, 0, 0, 0, 0, 1.4586, 0, 0.3927, 0.43757996, 0.400499642, 1], "mesh" : 3, "name" : "wheel_backRight"}, {"matrix" : [-0.8976, 0, 0, 0, 0, 0.8976, 0, 0, 0, 0, 0.8976, 0, -0.3927, 0.26928, -0.598080337, 1], "mesh" : 4, "name" : "wheel_frontLeft"}, {"matrix" : [0.8976, 0, 0, 0, 0, 0.8976, 0, 0, 0, 0, 0.8976, 0, 0.3927, 0.26928, -0.598080337, 1], "mesh" : 5, "name" : "wheel_frontRight"}, {"children" : [0, 1, 2, 3, 4, 5], "name" : "tractor"}], "scene" : 0, "scenes" : [{"nodes" : [6]}]}