{
  "accessors": [
    {
      "name": "Mesh1 Group1 Model_1_positions",
      "componentType": 5126,
      "count": 133,
      "min": [
        0,
        0,
        -0.9336599707603455
      ],
      "max": [
        0.8085730075836182,
        2.5308899879455566,
        0
      ],
      "type": "VEC3",
      "bufferView": 0,
      "byteOffset": 0
    },
    {
      "name": "Mesh1 Group1 Model_1_normals",
      "componentType": 5126,
      "count": 133,
      "min": [
        -1,
        -1,
        -0.998665988445282
      ],
      "max": [
        1,
        1,
        0.998665988445282
      ],
      "type": "VEC3",
      "bufferView": 0,
      "byteOffset": 1596
    },
    {
      "name": "Mesh1 Group1 Model_1_texcoords",
      "componentType": 5126,
      "count": 133,
      "min": [
        -0.8169530034065247,
        -1.5308899879455566
      ],
      "max": [
        0.8169530034065247,
        1.028875470161438
      ],
      "type": "VEC2",
      "bufferView": 1,
      "byteOffset": 0
    },
    {
      "name": "Mesh1 Group1 Model_1_0_indices",
      "componentType": 5123,
      "count": 180,
      "min": [
        0
      ],
      "max": [
        112
      ],
      "type": "SCALAR",
      "bufferView": 2,
      "byteOffset": 0
    },
    {
      "name": "Mesh1 Group1 Model_1_1_indices",
      "componentType": 5123,
      "count": 30,
      "min": [
        113
      ],
      "max": [
        132
      ],
      "type": "SCALAR",
      "bufferView": 2,
      "byteOffset": 360
    }
  ],
  "asset": {
    "generator": "obj2gltf",
    "version": "2.0"
  },
  "buffers": [
    {
      "name": "roadTile_019",
      "byteLength": 4676,
      "uri": "data:application/octet-stream;base64,"
    }
  ],
  "bufferViews": [
    {
      "name": "bufferView_0",
      "buffer": 0,
      "byteLength": 3192,
      "byteOffset": 0,
      "byteStride": 12,
      "target": 34962
    },
    {
      "name": "bufferView_1",
      "buffer": 0,
      "byteLength": 1064,
      "byteOffset": 3192,
      "byteStride": 8,
      "target": 34962
    },
    {
      "name": "bufferView_2",
      "buffer": 0,
      "byteLength": 420,
      "byteOffset": 4256,
      "target": 34963
    }
  ],
  "materials": [
    {
      "name": "Grass",
      "pbrMetallicRoughness": {
        "baseColorFactor": [
          0.541176,
          0.709804,
          0.286275,
          1
        ],
        "metallicFactor": 0,
        "roughnessFactor": 1
      },
      "emissiveFactor": [
        0,
        0,
        0
      ],
      "alphaMode": "OPAQUE",
      "doubleSided": false
    },
    {
      "name": "Alternate_Dirt",
      "pbrMetallicRoughness": {
        "baseColorFactor": [
          0.721569,
          0.564706,
          0.396078,
          1
        ],
        "metallicFactor": 0,
        "roughnessFactor": 1
      },
      "emissiveFactor": [
        0,
        0,
        0
      ],
      "alphaMode": "OPAQUE",
      "doubleSided": false
    }
  ],
  "meshes": [
    {
      "name": "Mesh1 Group1 Model_1",
      "primitives": [
        {
          "attributes": {
            "POSITION": 0,
            "NORMAL": 1,
            "TEXCOORD_0": 2
          },
          "indices": 3,
          "material": 0,
          "mode": 4
        },
        {
          "attributes": {
            "POSITION": 0,
            "NORMAL": 1,
            "TEXCOORD_0": 2
          },
          "indices": 4,
          "material": 1,
          "mode": 4
        }
      ]
    }
  ],
  "nodes": [
    {
      "name": "Mesh1 Group1 Model",
      "mesh": 0
    }
  ],
  "scene": 0,
  "scenes": [
    {
      "nodes": [
        0
      ]
    }
  ]
}
